<svg width="100%" height="100%" viewBox="0 0 1512 948" fill="none" xmlns="http://www.w3.org/2000/svg" preserveAspectRatio="none">
  <path d="M-67.7408 66.1422C-17.6581 167.618 25.6176 -96.8092 175.867 66.1422C326.117 229.094 219.629 -59.6466 395.163 66.1422C570.697 191.931 450.595 -132.542 640.231 66.1422C829.866 264.827 697.607 -70.3536 892.105 66.1422C1086.6 202.638 962.609 -57.4895 1127.93 66.1422C1293.26 189.774 1308.26 -8.80021 1402.66 66.1422C1577.42 204.885 1711.5 1194.19 1472.5 889C1233.5 583.813 1377.5 995 1200.5 874C1023.5 753 1133 1006 945.5 874C758 742 870.69 1042.13 656.5 874C442.31 705.873 592.691 1043.81 378.5 843C164.309 642.187 287.638 987.813 72.5 817C-142.638 646.187 -67.741 874 -67.741 874C-67.741 874 -117.824 -35.3337 -67.7408 66.1422Z" fill="#0D87FF"/>
</svg>
