<svg width="100%" height="100%" viewBox="0 0 1512 948" fill="none" xmlns="http://www.w3.org/2000/svg" preserveAspectRatio="none">
<path d="M-27.8732 28.5273C-9.80873 79.6249 -27.8732 2.32623 18.979 28.5271C65.8312 54.728 87 -8.99993 122 28.5271C157 66.0542 187 -9.49993 234 28.5271C281 66.5542 286.5 -16.7384 334 28.5271C381.5 73.7926 386.414 -33.0557 432 11.3246C502.771 80.2237 462.948 514.726 388.555 435.319C314.163 355.913 357.5 480.325 296.579 435.319C235.658 390.314 252.5 485.325 192.339 435.319C132.178 385.314 136.086 477.325 92.0669 419.71C48.0476 362.094 49.6137 485.614 -18.3039 406.617C-18.3039 406.617 -45.9376 -22.5704 -27.8732 28.5273Z" fill="#0D87FF"/>
</svg>
