<svg width="18" height="18" viewBox="0 0 18 18" fill="currentColor" xmlns="http://www.w3.org/2000/svg">
<path d="M0.630242 15.1768L6.80624 9.00077L0.662242 2.85676C0.51779 2.72105 0.402234 2.55756 0.322502 2.37611C0.24277 2.19465 0.200505 1.99896 0.198242 1.80077C0.198242 1.37642 0.366813 0.969453 0.666871 0.669395C0.966929 0.369337 1.3739 0.200765 1.79824 0.200765C1.99441 0.197035 2.18926 0.23343 2.37085 0.307717C2.55244 0.382005 2.71694 0.492618 2.85424 0.632766L8.99824 6.85677L15.2222 0.632767C15.4802 0.369063 15.8296 0.21443 16.1982 0.200767C16.6226 0.200767 17.0296 0.369338 17.3296 0.669396C17.6297 0.969454 17.7982 1.37642 17.7982 1.80077C17.8067 2.00468 17.7727 2.20812 17.6983 2.39818C17.6239 2.58823 17.5108 2.76075 17.3662 2.90477L11.1902 9.00077L17.3502 15.1608C17.4899 15.296 17.6014 15.4575 17.6782 15.636C17.7551 15.8145 17.7959 16.0064 17.7982 16.2008C17.7982 16.6251 17.6297 17.0321 17.3296 17.3321C17.0296 17.6322 16.6226 17.8008 16.1982 17.8008C16.0021 17.8045 15.8072 17.7681 15.6256 17.6938C15.444 17.6195 15.2795 17.5089 15.1422 17.3688L8.99824 11.1448L2.77424 17.3688C2.51626 17.6325 2.1669 17.7871 1.79824 17.8008C1.3739 17.8008 0.966929 17.6322 0.666871 17.3321C0.366813 17.0321 0.198242 16.6251 0.198242 16.2008C0.203042 15.8168 0.358242 15.4488 0.630242 15.1768Z"/>
</svg>
