<svg width="19" height="11" viewBox="0 0 19 11" fill="none" xmlns="http://www.w3.org/2000/svg">
<path d="M18.575 2.29998L10.175 10.725C10.075 10.825 9.96667 10.896 9.85 10.938C9.73333 10.98 9.60833 11.0007 9.475 11C9.34167 11 9.21667 10.979 9.1 10.937C8.98333 10.895 8.875 10.8243 8.775 10.725L0.35 2.29998C0.116667 2.06665 0 1.77498 0 1.42498C0 1.07498 0.125 0.774984 0.375 0.524984C0.625 0.274984 0.916667 0.149984 1.25 0.149984C1.58333 0.149984 1.875 0.274984 2.125 0.524984L9.475 7.87498L16.825 0.524984C17.0583 0.291651 17.346 0.174984 17.688 0.174984C18.03 0.174984 18.3257 0.299984 18.575 0.549984C18.825 0.799984 18.95 1.09165 18.95 1.42498C18.95 1.75832 18.825 2.04998 18.575 2.29998Z" fill="white"/>
</svg>
