<svg width="102" height="88" viewBox="0 0 51 44" fill="none" xmlns="http://www.w3.org/2000/svg">
<path d="M13.8506 25.2821C16.5506 25.7949 17.2266 27.6744 17.8506 29H17.3506L16.9141 28.359C16.7701 28.4026 16.6586 28.359 16.5506 28.359C13.2506 28.359 12.3506 24 12.3506 24C12.6506 24.5128 14.7506 24.5769 16.2506 24.8333C17.7506 25.0897 18.3506 26.1795 18.3506 26.6923C18.3506 27.2051 17.8256 27.6538 17.8256 27.6538C16.8506 25.2821 13.8506 25.2821 13.8506 25.2821Z" fill="#4CAF50"/>
<path fill-rule="evenodd" clip-rule="evenodd" d="M7.39597 11.9238H7.32998L7.26398 11.8578H7.19799H7.13199L7.066 11.7918H7H7.066L7.13199 11.7258H7.26398H7.39597H7.52796L7.59396 11.7918L7.52796 11.8578H7.46197L7.39597 11.9238Z" fill="#0D87FF"/>
<path fill-rule="evenodd" clip-rule="evenodd" d="M24.0272 27.1687L23.9612 27.2347L23.8953 27.3007L23.8293 27.2347H23.7633L23.6973 27.1687V27.0367V26.9707H23.7633V26.9047V26.8387V26.7727H23.8293L23.8953 26.7067V26.6407L23.9612 26.5747L24.0272 26.6407V26.5747H24.0932H24.1592H24.2252V26.6407H24.2912V26.7067V26.7727L24.2252 26.7067H24.1592V26.7727V26.8387L24.0932 26.9047H24.1592L24.2252 26.8387V26.9047L24.2912 26.8387V26.7727L24.3572 26.7067L24.4232 26.7727H24.3572V26.8387L24.2912 26.9047V26.9707H24.2252L24.1592 27.0367L24.0932 27.1027V27.0367H24.0272L23.9612 26.9707H23.8953V27.0367L23.9612 27.1027H24.0272V27.1687Z" fill="#0D87FF"/>
<path fill-rule="evenodd" clip-rule="evenodd" d="M29.9005 27.4988V27.4328H29.8345V27.4988L29.7685 27.4328H29.8345L29.7685 27.3668H29.7025V27.3008L29.6365 27.2348L29.5705 27.3008L29.6365 27.2348H29.5045V27.1688L29.4385 27.1028L29.3725 27.1688H29.3065H29.2405H29.1745H29.1086V27.1028H29.1745V26.9708V26.9049H29.1086V26.8389H29.0426H28.9766V26.7729H29.0426H29.1086V26.7069H29.0426L28.9766 26.6409H29.0426V26.5749V26.5089H29.1086H29.1745H29.1086L29.1745 26.4429L29.2405 26.5089L29.1745 26.4429H29.2405L29.3065 26.3769H29.2405V26.3109L29.3065 26.2449H29.3725H29.3065L29.3725 26.1789H29.4385H29.3725L29.4385 26.1129H29.5045V26.0469L29.5705 25.9149L29.6365 25.8489V25.7829H29.7025L29.7685 25.7169L29.8345 25.6509H29.9005H29.9665V25.519L30.0325 25.453L30.0985 25.387H30.2305H30.3625L30.5604 25.453L30.6264 25.519H30.6924H30.7584H30.8904H30.9564L31.0884 25.453H31.1544H31.2864L31.4184 25.387H31.4844H31.6164H31.6824L31.8803 25.453V25.519L31.9463 25.5849L32.0783 25.7169L32.1443 25.7829L32.2103 25.9809V26.0469V26.1129V26.1789L32.3423 26.3109L32.4083 26.3769L32.4743 26.4429V26.5089V26.5749V26.6409H32.5403L32.6063 26.7729H32.6723L32.7383 26.8389H32.8043L32.8703 26.9049V26.9708V27.0368H32.9363L33.0023 27.1028L33.0683 27.1688V27.2348L33.1343 27.3008V27.4328V27.4988V27.4328V27.4988L33.2003 27.5648V27.6308V27.6968V27.7628H33.1343H33.0683V27.8288H33.0023V27.8948H32.9363V27.9608L32.8703 28.0268H32.8043V28.0928L32.7383 28.1588H32.8043H32.7383V28.2248V28.2907L32.6723 28.3567L32.7383 28.4887H32.6723L32.7383 28.5547V28.6207V28.5547H32.6063V28.6207V28.5547H32.5403V28.6207L32.4743 28.6867H32.4083V28.7527L32.3423 28.8187L32.2763 28.8847L32.2103 28.8187H32.1443L32.0783 28.6867H31.9463H31.8803H31.8144V28.6207L31.7484 28.5547H31.6824L31.6164 28.4887H31.5504H31.4844H31.4184L31.3524 28.4227H31.2864L31.1544 28.3567V28.4227V28.3567H31.0884H31.0224H30.9564H30.8904V28.2907V28.2248H30.7584L30.8244 28.1588H30.7584L30.8244 28.0928H30.7584L30.6924 28.0268V27.9608H30.6264L30.4945 27.8948V27.8288H30.4285H30.3625H30.2965H30.2305V27.7628H30.1645V27.6968L30.0985 27.7628L30.0325 27.6968H29.9665V27.6308L29.9005 27.6968V27.6308V27.4988Z" fill="#0D87FF"/>
<path fill-rule="evenodd" clip-rule="evenodd" d="M29.0423 25.981L29.1083 25.915L29.1743 25.849L29.3063 25.783H29.3723L29.4383 25.717V25.783L29.3723 25.849V25.915L29.3063 26.047L29.1743 26.113L29.1083 26.179H29.0423V26.245L28.9763 26.311V26.245H28.9103V26.311H28.8443V26.245V26.311V26.245H28.7783V26.179H28.8443V26.113V26.047H28.9763L29.0423 25.981Z" fill="#0D87FF"/>
<path fill-rule="evenodd" clip-rule="evenodd" d="M28.9106 25.9149H28.8446H28.7786H28.7126L28.6466 25.8489H28.5806V25.7829V25.7169L28.5146 25.6509H28.5806L28.6466 25.5849V25.6509H28.7126V25.5849H28.7786H28.8446H28.9766V25.4529V25.387L29.0426 25.321V25.189H29.1086H29.1746H29.2406L29.4386 25.255H29.5046H29.5706V25.387H29.6366L29.5706 25.4529H29.5046L29.5706 25.5189H29.5046L29.4386 25.5849V25.6509L29.3726 25.5849V25.6509H29.3066V25.7169L29.1746 25.7829V25.8489L29.0426 25.9149H28.9106Z" fill="#0D87FF"/>
<path fill-rule="evenodd" clip-rule="evenodd" d="M14.9199 19.8433H14.7219L14.6559 19.7774H14.5239H14.4579L14.3919 19.7114H14.3259V19.6454L14.2599 19.5794L14.1279 19.5134H14.0619V19.4474V19.3814L13.9959 19.3154H13.93L13.798 19.2494L13.6 19.1834L13.402 19.1174H13.27L13.138 19.0514H13.006L12.808 18.9854L12.4121 18.9194H12.2141L11.9501 18.8534L11.6201 18.9194H11.3561H11.0922L10.3662 19.1174H10.0362V19.1834L9.77226 19.1174H9.64027H9.50828L9.37629 19.0514V18.9854L9.2443 19.0514H9.1783H9.11231L8.98032 18.9854L8.84833 18.9194V18.8534V18.7874L8.71634 18.6554H8.65034L8.71634 18.5894L8.58435 18.4574L8.45236 18.3255H8.38636V18.2595H8.32037L8.25437 18.1935V18.1275L8.12238 17.9955L8.05639 17.9295L7.99039 17.8635V17.7315H7.9244L7.79241 17.5995H7.72641L7.66042 17.5335H7.59442L7.46243 17.4015L7.39643 17.3355L7.33044 17.2035V17.0716V17.1375V17.2035L7.39643 17.2695V17.2035V17.1375V17.0716V17.0056V16.8736L7.33044 16.8076L7.26444 16.6756H7.19845L7.00046 16.5436V16.4776L6.93447 16.4116V16.3456L6.86847 16.2796H6.80248L6.67049 16.2136V16.1476L6.60449 16.0816H6.5385V16.0156V15.9496L6.4725 15.8836V15.8176L6.40651 15.7516L6.34051 15.6197L6.27452 15.5537L6.20852 15.3557L6.07653 15.2237V15.1577H6.01054V15.0917L5.94454 15.0257L5.87855 14.9597V14.8937H5.81255L5.74656 14.6957L5.68056 14.4977L5.61457 14.4317V14.3658V14.2998L5.54857 14.1678V14.1018V13.9698L5.48258 13.9038L5.41658 13.8378L5.35059 13.7718L5.41658 13.7058L5.35059 13.6398V13.5738V13.5078V13.4418H5.41658V13.3758H5.48258V13.4418H5.54857L5.61457 13.5078H5.54857H5.48258L5.54857 13.5738H5.61457H5.68056L5.61457 13.7058H5.54857L5.48258 13.6398V13.7058V13.7718H5.54857V13.8378L5.61457 13.9038H5.54857V13.9698H5.61457V13.9038H5.68056L5.74656 13.8378L5.81255 13.7718L5.87855 13.7058L5.94454 13.5738V13.7058H6.01054L6.07653 13.6398H6.14253L6.20852 13.5738H6.27452L6.34051 13.5078H6.40651V13.4418L6.27452 13.3098H6.20852H6.14253L6.07653 13.3758L6.01054 13.3098H5.94454H5.87855H5.81255L5.74656 13.2438H5.68056V13.1778H5.61457V13.1118V13.0458L5.68056 12.9799V12.9139L5.61457 12.7159V12.6499L5.54857 12.5839L5.48258 12.5179L5.41658 12.4519V12.3859H5.35059L5.41658 12.3199V12.2539V12.1219V11.9899V11.9239V11.8579L5.48258 11.7919L5.68056 11.7259H5.74656H5.81255L6.07653 11.7919H6.27452H6.5385H6.60449H6.73648H6.80248V11.8579H6.86847V11.9239H6.93447V11.9899H7.00046L7.06646 12.1219V12.1879L7.13245 12.2539H7.19845L7.26444 12.4519H7.33044V12.5179L7.39643 12.5839L7.46243 12.6499V12.7159V12.7819V12.8479H7.39643L7.46243 12.7819L7.39643 12.7159V12.7819V12.8479H7.33044V12.9139L7.26444 12.9799H7.33044V13.0458H7.26444L7.19845 13.1118H7.26444H7.33044L7.39643 13.1778H7.46243H7.52842H7.59442L7.66042 13.1118L7.72641 13.0458L7.8584 12.9139V12.8479H7.99039V12.7819H8.05639L8.12238 12.7159L8.18838 12.6499H8.25437L8.32037 12.7159V12.7819H8.25437L8.32037 12.8479L8.38636 12.9139H8.45236L8.51835 12.8479H8.58435L8.51835 12.7819H8.45236H8.38636L8.32037 12.7159L8.38636 12.6499H8.45236L8.58435 12.5839V12.5179L8.65034 12.5839V12.5179V12.4519H8.71634H8.78233V12.3859H8.91432V12.4519H8.98032L9.04631 12.3859L9.11231 12.4519V12.5179V12.5839L9.04631 12.6499L8.98032 12.5839L9.04631 12.7159L9.11231 12.8479H9.1783L9.2443 12.7819V12.8479L9.31029 12.7819V12.8479L9.37629 12.7819L9.44228 12.7159L9.50828 12.6499V12.7159L9.57427 12.6499V12.5839L9.64027 12.5179V12.4519H9.70626V12.5179L9.83825 12.5839H9.97024L10.0362 12.6499H10.1022V12.7819H10.1682H10.2342H10.3002V12.7159V12.6499L10.3662 12.7819H10.4322L10.5642 12.9139L10.6302 12.9799H10.6962V12.9139H10.7622V12.9799H10.8282H10.8942V13.0458H11.0262L11.0922 12.9799H11.1582H11.2242H11.2901L11.3561 12.9139L11.4881 12.9799L11.5541 13.0458L11.6201 13.1118H11.6861V13.1778H11.7521L11.8841 13.2438V13.1778L11.9501 13.1118V13.1778V13.2438H12.0821H12.2141V13.3098H12.4121L12.4781 13.3758L12.5441 13.4418H12.61V13.5078H12.676H12.742L12.808 13.5738L12.874 13.5078V13.5738H12.94H13.072L13.138 13.6398H13.204H13.27H13.468L13.534 13.7058H13.6L13.732 13.7718H13.798H13.864L13.93 13.8378H13.9959H14.0619L14.1279 13.9038L14.1939 13.9698L14.2599 13.9038H14.3259V13.9698L14.3919 14.0358L14.4579 14.1018H14.5239H14.5899L14.6559 13.9698V14.0358L14.7219 14.1018H14.7879H14.8539V14.0358H14.9199L14.9859 14.1018L15.1179 14.1678H15.1839H15.2499H15.3158H15.4478H15.5138H15.5798H15.6458H15.7778V14.1018H15.8438L15.9098 14.0358H15.9758H16.0418L16.1078 13.9698L16.1738 14.0358L16.3058 13.9698L16.3718 13.9038V13.8378L16.5038 13.9038H16.6358L16.7677 13.8378H16.8337H16.8997H16.9657L17.0977 13.9038H17.2297L17.3617 13.8378H17.4277H17.5597H17.6257H17.6917H17.7577H18.0216H18.1536L18.2856 13.7718H18.3516L18.4176 13.7058H18.5496H18.6156L18.6816 13.6398H18.7476V13.5078L18.8136 13.4418H18.8796H18.9456H19.0116H19.0776L19.1436 13.3758L19.2096 13.3098V13.2438V13.1778H19.2756L19.4075 13.1118L19.5395 13.0458L19.6055 12.9799H19.6715L19.7375 12.9139V12.8479L19.8035 12.7819L19.8695 12.7159L19.9355 12.6499V12.5839H20.0015L20.0675 12.5179V12.4519L20.1335 12.3859H20.1995L20.2655 12.3199L20.3315 12.2539V12.1879L20.3975 12.1219H20.4635V12.0559L20.5295 11.9899H20.6615L20.7934 11.9239L21.0574 11.66L21.1894 11.594L21.2554 11.528L21.3214 11.462H21.3874H21.4534L21.6514 11.396L21.7174 11.33L21.9154 11.264L22.1133 11.132L22.2453 11.066H22.3113H22.5093L22.8393 11H22.9053L22.9713 11.066L23.0373 11.132H23.1033H23.1693L23.2353 11.264H23.3013L23.3673 11.33H23.4992L23.6312 11.396L23.8292 11.462H23.9612L24.0272 11.528H24.1592H24.2912H24.3572L24.5552 11.594H24.6212H24.6872L24.7532 11.66H24.8191L24.8851 11.7259L25.0171 11.8579H25.0831H25.1491L25.2811 11.9239V11.9899H25.4131H25.5451L25.6111 12.0559H25.7431H25.8091L25.8751 12.1219H25.9411L26.0071 12.1879H26.0731H26.139H26.271H26.337H26.403H26.469L26.601 12.2539V12.3199V12.3859H26.667L26.733 12.4519L26.865 12.5179L26.931 12.5839H26.997H27.129L27.195 12.6499H27.261H27.327L27.393 12.7159H27.459H27.5249L27.6569 12.7819L27.8549 12.8479L27.9869 12.9139L28.0529 12.9799L28.1849 13.0458V13.1118H28.2509H28.3829L28.4489 13.1778H28.5149H28.6469L28.7129 13.2438H28.7789H28.8448L28.9768 13.3098L29.1088 13.3758H29.1748L29.2408 13.4418V13.5738H29.3068H29.3728L29.4388 13.7058H29.5048L29.5708 13.7718H29.6368L29.8348 13.8378H29.9008L29.9668 13.9698L30.0328 14.0358H30.0988L30.1648 14.1018H30.2967V14.2338L30.4287 14.3658V14.4317H30.5607L30.6927 14.4977L30.8247 14.6297H30.8907L31.0227 14.6957H31.0887L31.1547 14.7617L31.2207 14.8277H31.2867L31.3527 14.8937L31.4847 14.9597L31.6166 15.0257L31.6826 15.1577L31.7486 15.2237H31.8146L31.8806 15.3557L31.9466 15.4217H32.0126L32.0786 15.5537H32.1446V15.6197L32.2766 15.7516L32.3426 15.8836L32.4086 16.0156L32.4746 16.1476H32.5406L32.6066 16.2136V16.2796H32.6726V16.3456L32.7386 16.4116L32.8046 16.4776L32.8706 16.5436H32.9365V16.6096H33.0025V16.7416L33.0685 16.8076L33.1345 16.9396V17.0056L33.2005 17.0716V17.1375L33.2665 17.2035H33.3325L33.3985 17.2695L33.5305 17.4015H33.5965L33.7285 17.4675L33.7945 17.4015L33.8605 17.4675H33.9265V17.5335H33.9925L34.0585 17.4675L34.1245 17.5995H34.1905L34.2564 17.6655H34.3224L34.4544 17.7315V17.7975H34.5204H34.5864V17.8635H34.6524L34.7184 17.9295L34.7844 17.9955V17.9295L34.8504 17.9955V18.0615L34.9164 18.1275V18.1935L34.9824 18.2595V18.3255H35.0484L35.1144 18.3915V18.4574V18.5234V18.6554H35.1804V18.7214L35.1144 18.7874L35.1804 18.8534H35.1144V18.9194L35.1804 18.9854L35.1144 19.0514L35.0484 19.1174V19.1834L34.9824 19.2494H34.9164V19.3154V19.3814H34.8504L34.7844 19.4474V19.5134L34.7184 19.5794L34.6524 19.6454L34.5864 19.7114V19.7774H34.5204L34.4544 19.9093H34.3884V19.9753H34.3224H34.2564V20.0413H34.1245H34.0585L33.9925 20.1073L33.9265 20.1733H33.8605V20.2393H33.7945H33.6625L33.4645 20.3713L33.3325 20.4373V20.5693V20.6353L33.2665 20.7013H33.2005V20.7673H33.1345L33.0685 20.8333V20.8993H33.0025L32.9365 20.9653V21.0313L32.8706 21.2292V21.2952L32.8046 21.3612V21.4272H32.8706L32.8046 21.4932V21.4272H32.7386H32.6726H32.6066L32.5406 21.4932L32.4086 21.5592L32.2766 21.6252L32.2106 21.6912L32.1446 21.7572L32.0786 21.6912L31.9466 21.6252L31.8806 21.5592H31.7486L31.6826 21.4932H31.6166L31.4847 21.4272L31.3527 21.4932L31.2207 21.4272L31.1547 21.3612L31.0227 21.2952L30.9567 21.3612H30.8907L30.8247 21.4272H30.7587H30.6927L30.6267 21.4932L30.5607 21.5592L30.4287 21.6252V21.6912V21.7572L30.4947 21.8232V21.8892V21.9552L30.5607 22.0212V22.0872V22.1532L30.4947 22.0872H30.4287V22.1532H30.4947L30.4287 22.2192V22.2852H30.3627L30.2967 22.3512H30.2307L29.9008 22.4832L29.7688 22.5491H29.5048L29.4388 22.6151H29.3728L29.2408 22.7471L29.1748 22.8131L29.1088 22.9451H29.0428V23.0111H28.9108H28.7129L28.6469 23.0771H28.5809H28.5149H28.4489H28.3169L28.2509 23.1431H28.0529H27.9209L27.6569 23.0771V23.1431L27.5909 23.0771H27.459H27.393H27.327H27.261L27.063 23.1431H26.997L26.865 23.2751L26.799 23.3411L26.733 23.4071V23.4731L26.667 23.5391H26.601L26.469 23.6051V23.6711L26.337 23.7371L26.271 23.8031L26.139 23.8691V23.935H26.0731V24.001H26.0071L25.9411 24.067H25.8751L25.8091 24.133L25.7431 24.199L25.6111 24.265V24.331L25.5451 24.397V24.463H25.4791L25.4131 24.529L25.3471 24.595L25.2811 24.661H25.2151L25.1491 24.727L25.0831 24.793L25.0171 24.859L24.8851 24.925L24.8191 24.991L24.6872 25.123V25.189V25.3209V25.3869L24.7532 25.5189V25.5849V25.7169L24.8191 25.7829V25.8489V25.9149L24.7532 26.1129V26.1789L24.6212 26.3109H24.5552H24.4892L24.4232 26.3769H24.3572V26.3109L24.2912 26.3769H24.2252L24.1592 26.4429H24.0272L23.9612 26.5089H23.8952L23.8292 26.5749V26.6408H23.8952V26.7068L23.8292 26.6408H23.7632V26.7068H23.6972L23.6312 26.6408V26.7068L23.5652 26.6408V26.7728V26.8388V26.9048V27.0368L23.4992 27.1028V27.1688L23.3673 27.1028L23.4332 26.9708L23.3673 26.9048H23.4332H23.4992V26.8388V26.7728L23.4332 26.7068H23.3673V26.7728V26.8388H23.3013V26.7728H23.2353V26.8388H23.1693V26.9708L23.1033 26.9048H23.0373L22.9713 26.9708V27.0368L22.9053 26.9708V27.0368V27.1028V27.1688V27.2348L22.8393 27.3008V27.3668L22.7733 27.4328L22.8393 27.4988V27.5648H22.9053V27.4988L22.9713 27.5648L23.0373 27.6308L23.1033 27.6968V27.7628V27.8288L23.1693 27.8948V27.9607H23.3013H23.3673V28.0267L23.4332 28.0927H23.4992H23.5652H23.6312H23.6972L23.6312 28.0267L23.5652 27.8948V27.8288L23.6312 27.7628V27.6308V27.5648V27.4988V27.4328V27.3668V27.3008H23.6972L23.7632 27.3668V27.4328L23.8292 27.4988L23.7632 27.6308L23.8292 27.6968V27.8288V27.8948L23.8952 28.0927H23.9612V28.1587V28.2247L24.0272 28.2907V28.3567H24.0932V28.4227H24.1592V28.4887H24.0932L24.0272 28.5547L23.9612 28.6207V28.6867L23.8292 28.8187V28.8847H23.7632V28.9507L23.6972 29.0167V29.0827V29.1487L23.6312 29.2147H23.4992L23.3673 29.2807L23.3013 29.3466H23.2353V29.4126H23.0373L22.9713 29.4786L22.7733 29.5446L22.7073 29.4786L22.6413 29.5446H22.5753H22.4433H22.3773H22.3113H22.2453H22.1133H22.0474H21.9814H21.8494H21.7834H21.7174H21.6514H21.5854V29.4786L21.5194 29.5446H21.3874V29.4786H21.2554H21.1894L21.0574 29.4126H20.9254L20.7934 29.3466L20.6615 29.2807H20.5955V29.1487L20.5295 29.0827H20.5955L20.5295 29.0167L20.5955 28.9507V28.8847V28.8187H20.6615V28.7527L20.7274 28.6867L20.7934 28.7527L20.9254 28.6207L20.9914 28.6867L21.0574 28.6207L21.1234 28.5547H21.1894L21.3214 28.4887V28.4227V28.2907L21.3874 28.2247V28.2907L21.4534 28.2247L21.5194 28.1587H21.5854H21.6514L21.7174 28.0927H21.7834L21.8494 28.0267L21.9154 27.9607L21.9814 27.8948V27.9607L22.0474 27.8948L22.1133 27.9607V27.8948L22.1793 27.9607L22.3113 28.0267L22.3773 27.9607L22.4433 27.8948L22.5093 27.7628V27.6308V27.5648V27.4988V27.4328L22.4433 27.3668L22.3773 27.2348H22.3113H22.1133V27.1688H22.3113V26.9708V26.9048H22.3773V26.8388V26.7728L22.4433 26.7068H22.5093V26.6408V26.5749V26.4429L22.4433 26.3769V26.2449L22.3773 26.1129L22.3113 25.9149L22.2453 25.8489V25.7829H22.1793L22.1133 25.6509L22.0474 25.5189L21.9814 25.4529L21.9154 25.3869L21.7834 25.2549L21.7174 25.189L21.5854 25.123L21.5194 25.057L21.4534 24.925L21.3874 24.859H21.3214L21.1894 24.793L21.1234 24.727H20.9914V24.661H20.9254V24.595V24.529H20.8594V24.397H20.7934L20.7274 24.331V24.265H20.6615L20.5955 24.133V24.067L20.5295 24.001V23.935L20.4635 23.8031L20.3975 23.6711H20.3315V23.6051H20.2655V23.5391L20.1335 23.4731V23.4071L20.0675 23.3411L20.0015 23.2751L19.9355 23.2091H19.8695L19.8035 23.1431L19.7375 23.0771V23.0111H19.6715V22.9451H19.6055L19.4075 22.8131L19.3416 22.7471H19.4075V22.6811L19.3416 22.7471L19.2756 22.6811L19.2096 22.6151H19.1436L19.0776 22.5491L18.9456 22.4832H18.8796V22.4172V22.3512H18.8136H18.7476L18.6816 22.2852L18.5496 22.2192V22.1532L18.4836 22.0212V21.9552H18.4176L18.3516 21.8892L18.2856 21.8232V21.7572L18.1536 21.6912H18.0876L18.0216 21.6252V21.5592H17.9557V21.4932L17.8237 21.4272H17.7577L17.6917 21.3612L17.6257 21.2952H17.5597H17.4937V21.2292L17.4277 21.1632L17.2957 21.0313L17.2297 20.9653L17.1637 20.8993V20.8333L17.0317 20.7673L16.9657 20.7013H16.8337L16.7677 20.6353L16.6358 20.5693L16.5698 20.5033L16.5038 20.4373H16.4378L16.3718 20.3713L16.0418 20.2393H15.9758L15.9098 20.1733H15.8438H15.7118L15.6458 20.1073H15.5798L15.4478 20.0413L15.3818 19.9753H15.2499L15.1839 19.9093L15.1179 19.8433V19.9093L14.9199 19.8433Z" fill="#0D87FF"/>
<path d="M17.3506 29C19.0176 31 21.4153 32.6458 23.9477 33.411C26.4801 34.1761 29.1896 34.1963 31.7338 33.4688C34.278 32.7413 36.5424 31.2988 38.2408 29.3238C39.9392 27.3489 40.9953 24.9301 41.2755 22.3733C41.5557 19.8165 41.0475 17.2366 39.815 14.9598C38.5826 12.6831 36.6813 10.8117 34.3516 9.58231C32.0219 8.35294 29.3685 7.82082 26.7268 8.05323C24.0851 8.28564 21.5738 9.27214 19.5105 10.888L19.7596 11.1868C21.7619 9.61866 24.199 8.6613 26.7626 8.43576C29.3262 8.21021 31.9013 8.72662 34.1621 9.91966C36.423 11.1127 38.2681 12.9288 39.4641 15.1383C40.6602 17.3478 41.1534 19.8515 40.8815 22.3327C40.6096 24.8139 39.5847 27.1613 37.9364 29.0779C36.2882 30.9945 34.0907 32.3944 31.6217 33.1004C29.1527 33.8064 26.5232 33.7868 24.0656 33.0443C21.6081 32.3017 19.4683 30.9409 17.8506 29H17.3506Z" fill="#4CAF50"/>
</svg>
