<svg width="533" height="330" viewBox="0 0 533 330" fill="none" xmlns="http://www.w3.org/2000/svg">
<path d="M165.064 156.167H167.396L168.562 157.333H172.06L175.558 158.5M165.064 156.167V156.167ZM165.064 156.167H163.898L162.732 155H161.566V153.833L160.4 152.667M160.4 152.667V152.667ZM160.4 152.667L158.069 151.5H156.903V150.333V149.167L155.737 148H154.571L152.239 146.833L148.741 145.667L145.243 144.5H142.912L140.58 143.333H138.248L134.75 142.167L127.754 141H124.257L119.593 139.833L113.763 141H109.1H104.436L91.6106 144.5H85.781V145.667L81.1173 144.5H78.7854M78.7854 144.5V144.5ZM78.7854 144.5H76.4535L74.1217 143.333M74.1217 143.333V143.333ZM74.1217 143.333V142.167L71.7898 143.333H70.6239H69.458L67.1261 142.167L64.7943 141M64.7943 141V141ZM64.7943 141V139.833V138.667L62.4624 136.333M62.4624 136.333V136.333ZM62.4624 136.333H61.2965L62.4624 135.167L60.1305 132.833M60.1305 132.833V132.833ZM60.1305 132.833L57.7987 130.5H56.6327V129.333H55.4668L54.3009 128.167V127L51.969 124.667L50.8031 123.5L49.6372 122.333V120H48.4712L46.1394 117.667H44.9735L43.8075 116.5H42.6416L40.3097 114.167M40.3097 114.167L39.1438 113M40.3097 114.167V114.167ZM40.3097 114.167H41.4757M39.1438 113V113ZM39.1438 113L37.9779 110.667M37.9779 110.667V108.333M37.9779 110.667V109.5V108.333M37.9779 110.667V110.667ZM37.9779 110.667L39.1438 111.833M37.9779 108.333V108.333ZM37.9779 108.333L39.1438 107.167M39.1438 107.167V107.167ZM39.1438 107.167V108.333V109.5M39.1438 107.167V104.833L37.9779 103.667L36.8119 101.333H35.646M39.1438 111.833V111.833ZM39.1438 111.833V110.667V109.5M39.1438 109.5V109.5ZM35.646 101.333V100.167M35.646 101.333L32.1482 99V97.8333L30.9823 96.6667V95.5L29.8164 94.3333H28.6504M28.6504 94.3333V94.3333ZM28.6504 94.3333L26.3186 93.1667V92L25.1527 90.8333H23.9867V89.6667V88.5L22.8208 87.3333V86.1667L21.6549 85L20.4889 82.6667L19.323 81.5L18.1571 78L15.8252 75.6667V74.5H14.6593V73.3333L13.4934 72.1667L12.3274 71M12.3274 71V71ZM12.3274 71V69.8333H11.1615L9.99558 66.3333L8.82965 62.8333L7.66372 61.6667M7.66372 61.6667V61.6667ZM7.66372 61.6667V60.5V59.3333L6.49779 57V55.8333V53.5M6.49779 53.5L5.33186 52.3333M6.49779 53.5V52.3333H7.66372M6.49779 53.5H7.66372V52.3333M5.33186 52.3333V52.3333ZM5.33186 52.3333L4.16593 51.1667L3 50L4.16593 48.8333L3 47.6667V46.5M3 46.5V46.5ZM3 46.5V45.3333M3 45.3333V45.3333ZM3 45.3333V44.1667H4.16593V43H5.33186M5.33186 43H6.49779M5.33186 43V44.1667H6.49779L7.66372 45.3333H6.49779H5.33186L6.49779 46.5H7.66372M7.66372 46.5V46.5ZM7.66372 46.5H8.82965L7.66372 48.8333M7.66372 48.8333H8.82965M7.66372 48.8333H6.49779L5.33186 47.6667V48.8333M5.33186 48.8333V48.8333ZM5.33186 48.8333V50H6.49779V51.1667M6.49779 51.1667V51.1667ZM6.49779 51.1667H7.66372M6.49779 51.1667L7.66372 52.3333M7.66372 52.3333H8.82965L9.99558 51.1667L11.1615 50M11.1615 50V48.8333M11.1615 50L12.3274 48.8333L13.4934 46.5M13.4934 46.5V46.5ZM13.4934 46.5V48.8333M13.4934 48.8333V48.8333ZM13.4934 48.8333H14.6593L15.8252 47.6667H16.9912L18.1571 46.5H19.323L20.4889 45.3333H21.6549V44.1667L19.323 41.8333H18.1571H16.9912M16.9912 41.8333V43M16.9912 41.8333L15.8252 43L14.6593 41.8333M14.6593 41.8333V41.8333ZM14.6593 41.8333H13.4934M13.4934 41.8333V41.8333ZM13.4934 41.8333H12.3274H11.1615L9.99558 40.6667H8.82965V39.5H7.66372V38.3333V37.1667L8.82965 36V34.8333L7.66372 31.3333V30.1667L6.49779 29L5.33186 27.8333L4.16593 26.6667V25.5H3L4.16593 24.3333V23.1667M4.16593 23.1667V23.1667ZM4.16593 23.1667V20.8333M4.16593 20.8333V20.8333ZM4.16593 20.8333V18.5V17.3333V16.1667L5.33186 15L8.82965 13.8333H9.99558H11.1615L15.8252 15M15.8252 15V15ZM15.8252 15H19.323M19.323 15V15ZM19.323 15H23.9867M23.9867 15V15ZM23.9867 15H25.1527M25.1527 15V15ZM25.1527 15H27.4845H28.6504V16.1667H29.8164V17.3333H30.9823V18.5H32.1482M32.1482 18.5V18.5ZM32.1482 18.5L33.3142 20.8333V22L34.4801 23.1667M34.4801 23.1667V23.1667ZM34.4801 23.1667H35.646L36.8119 26.6667H37.9779V27.8333L39.1438 29L40.3097 30.1667M40.3097 30.1667V30.1667ZM40.3097 30.1667V31.3333V32.5M40.3097 32.5V33.6667H39.1438M40.3097 32.5L39.1438 33.6667M40.3097 32.5L39.1438 31.3333V32.5M39.1438 33.6667V32.5M39.1438 33.6667H37.9779V34.8333L36.8119 36H37.9779V37.1667M39.1438 32.5V32.5ZM37.9779 37.1667V37.1667ZM37.9779 37.1667H36.8119M36.8119 37.1667V37.1667ZM36.8119 37.1667L35.646 38.3333H36.8119H37.9779M37.9779 38.3333V38.3333ZM37.9779 38.3333L39.1438 39.5M39.1438 39.5V39.5ZM39.1438 39.5H40.3097H41.4757H42.6416L43.8075 38.3333M43.8075 38.3333V38.3333ZM43.8075 38.3333L44.9735 37.1667M44.9735 37.1667V37.1667ZM44.9735 37.1667L47.3053 34.8333V33.6667H49.6372M49.6372 33.6667V33.6667ZM49.6372 33.6667V32.5H50.8031M50.8031 32.5V32.5ZM50.8031 32.5L51.969 31.3333L53.135 30.1667H54.3009M54.3009 30.1667V30.1667ZM54.3009 30.1667L55.4668 31.3333M55.4668 31.3333V32.5H54.3009L55.4668 33.6667M55.4668 31.3333L56.6327 32.5H57.7987H58.9646L60.1305 33.6667H58.9646M55.4668 31.3333L56.6327 30.1667M55.4668 33.6667V33.6667ZM55.4668 33.6667L56.6327 34.8333M56.6327 34.8333V34.8333ZM56.6327 34.8333H57.7987L58.9646 33.6667M58.9646 33.6667V34.8333M56.6327 30.1667V30.1667ZM56.6327 30.1667H57.7987L60.1305 29V27.8333M60.1305 27.8333L61.2965 29V27.8333M60.1305 27.8333H61.2965M60.1305 27.8333V27.8333ZM61.2965 27.8333V26.6667H62.4624H63.6283V25.5H65.9602M65.9602 25.5V25.5ZM65.9602 25.5V26.6667H67.1261M67.1261 26.6667V26.6667ZM67.1261 26.6667L68.292 25.5L69.458 26.6667M69.458 26.6667V26.6667ZM69.458 26.6667V27.8333V29L68.292 30.1667L67.1261 29L68.292 31.3333M68.292 31.3333V31.3333ZM68.292 31.3333L69.458 33.6667M69.458 33.6667V33.6667ZM69.458 33.6667H70.6239L71.7898 32.5M71.7898 32.5V32.5ZM71.7898 32.5V33.6667L72.9558 32.5V33.6667L74.1217 32.5M74.1217 32.5V32.5ZM74.1217 32.5L75.2876 31.3333L76.4535 30.1667V31.3333L77.6195 30.1667M77.6195 30.1667V30.1667ZM77.6195 30.1667H78.7854M77.6195 30.1667V29L78.7854 27.8333V26.6667M78.7854 26.6667V26.6667ZM78.7854 26.6667H79.9513V27.8333M79.9513 27.8333V27.8333ZM79.9513 27.8333L82.2832 29H84.615M84.615 29V29ZM84.615 29L85.781 30.1667H86.9469V32.5H88.1128H89.2788M89.2788 32.5V32.5ZM89.2788 32.5H90.4447V31.3333V30.1667M90.4447 30.1667V30.1667ZM90.4447 30.1667L91.6106 32.5H92.7765L95.1084 34.8333L96.2743 36H97.4403V34.8333H98.6062V36H99.7721H100.938V37.1667H103.27L104.436 36H105.602H106.768M106.768 36V36ZM106.768 36H107.934L109.1 34.8333L111.431 36L112.597 37.1667L113.763 38.3333M113.763 38.3333V38.3333ZM113.763 38.3333H114.929V39.5H116.095L118.427 40.6667V39.5L119.593 38.3333M119.593 38.3333V38.3333ZM119.593 38.3333V39.5V40.6667H121.925H124.257V41.8333H127.754L128.92 43L130.086 44.1667H131.252V45.3333H132.418H133.584L134.75 46.5L135.916 45.3333V46.5H137.082M137.082 46.5V46.5ZM137.082 46.5H139.414L140.58 47.6667H141.746H142.912H146.409L147.575 48.8333H148.741L151.073 50M151.073 50V50ZM151.073 50H152.239H153.405L154.571 51.1667H155.737H156.903L158.069 52.3333L159.235 53.5L160.4 52.3333H161.566V53.5L162.732 54.6667L163.898 55.8333H165.064H166.23L167.396 53.5M167.396 53.5V53.5ZM167.396 53.5V54.6667L168.562 55.8333H169.728H170.894V54.6667H172.06L173.226 55.8333L175.558 57H176.723H177.889H179.055H181.387H182.553H183.719H184.885H187.217V55.8333H188.383L189.549 54.6667M189.549 54.6667V54.6667ZM189.549 54.6667H190.715H191.881L193.046 53.5L194.212 54.6667L196.544 53.5M196.544 53.5V53.5ZM196.544 53.5L197.71 52.3333V51.1667L200.042 52.3333H202.374L204.706 51.1667H205.872H207.038H208.204M208.204 51.1667V51.1667ZM208.204 51.1667L210.535 52.3333H212.867L215.199 51.1667H216.365H218.697H219.863H221.029M221.029 51.1667V51.1667ZM221.029 51.1667H222.195H226.858H229.19L231.522 50H232.688L233.854 48.8333M233.854 48.8333V48.8333ZM233.854 48.8333H236.186H237.352L238.518 47.6667H239.684V45.3333L240.85 44.1667H242.015H243.181H244.347H245.513L246.679 43L247.845 41.8333V40.6667V39.5H249.011L251.343 38.3333L253.675 37.1667L254.841 36H256.007L257.173 34.8333M257.173 34.8333V34.8333ZM257.173 34.8333V33.6667L258.338 32.5L259.504 31.3333L260.67 30.1667V29H261.836L263.002 27.8333V26.6667L264.168 25.5H265.334L266.5 24.3333L267.666 23.1667V22L268.832 20.8333M268.832 20.8333V20.8333ZM268.832 20.8333H269.998V19.6667L271.164 18.5H273.496L275.827 17.3333M275.827 17.3333V17.3333ZM275.827 17.3333L280.491 12.6667L282.823 11.5L283.989 10.3333L285.155 9.16667M285.155 9.16667V9.16667ZM285.155 9.16667H286.321H287.487L290.985 8L292.15 6.83333L295.648 5.66667L299.146 3.33333L301.478 2.16667H302.644H306.142L311.971 1H313.137L314.303 2.16667L315.469 3.33333H316.635H317.801L318.967 5.66667H320.133L321.299 6.83333H323.631L325.962 8M325.962 8V8ZM325.962 8L329.46 9.16667H331.792L332.958 10.3333H335.29H337.622H338.788L342.285 11.5M342.285 11.5V11.5ZM342.285 11.5H343.451H344.617L345.783 12.6667H346.949M346.949 12.6667V12.6667ZM346.949 12.6667L348.115 13.8333L350.447 16.1667H351.613H352.779L355.111 17.3333V18.5H357.442H359.774L360.94 19.6667H363.272H364.438L365.604 20.8333M365.604 20.8333V20.8333ZM365.604 20.8333H366.77L367.936 22H369.102H370.268H372.6H373.765H374.931H376.097L378.429 23.1667V24.3333V25.5H379.595L380.761 26.6667L383.093 27.8333L384.259 29H385.425H387.757M387.757 29V29ZM387.757 29L388.923 30.1667H390.089H391.254M391.254 30.1667V30.1667ZM391.254 30.1667L392.42 31.3333H393.586H394.752L397.084 32.5L400.582 33.6667L402.914 34.8333M402.914 34.8333V34.8333ZM402.914 34.8333L404.08 36L406.411 37.1667V38.3333H407.577H409.909L411.075 39.5H412.241M412.241 39.5V39.5ZM412.241 39.5H414.573L415.739 40.6667H416.905H418.071M418.071 40.6667V40.6667ZM418.071 40.6667L420.403 41.8333L422.735 43H423.9L425.066 44.1667V46.5H426.232H427.398L428.564 48.8333H429.73L430.896 50H432.062L435.56 51.1667H436.726L437.892 53.5L439.058 54.6667H440.223L441.389 55.8333H443.721V58.1667L446.053 60.5V61.6667H448.385L450.717 62.8333M450.717 62.8333V62.8333ZM450.717 62.8333L453.049 65.1667H454.215L456.546 66.3333H457.712L458.878 67.5L460.044 68.6667H461.21L462.376 69.8333L464.708 71L467.04 72.1667L468.206 74.5L469.372 75.6667H470.538L471.704 78L472.869 79.1667H474.035L475.201 81.5M475.201 81.5V81.5ZM475.201 81.5H476.367V82.6667L478.699 85L479.865 87.3333L481.031 89.6667L482.197 92M482.197 92V92ZM482.197 92H483.363L484.529 93.1667M484.529 93.1667V93.1667ZM484.529 93.1667V94.3333H485.695M485.695 94.3333V94.3333ZM485.695 94.3333V95.5L486.861 96.6667M486.861 96.6667V96.6667ZM486.861 96.6667L488.027 97.8333L489.192 99H490.358V100.167H491.524V102.5L492.69 103.667L493.856 106V107.167L495.022 108.333M495.022 108.333V108.333ZM495.022 108.333V109.5L496.188 110.667H497.354L498.52 111.833L500.852 114.167H502.018L504.35 115.333L505.515 114.167L506.681 115.333H507.847V116.5H509.013M509.013 116.5V116.5ZM509.013 116.5L510.179 115.333L511.345 117.667H512.511L513.677 118.833H514.843L517.175 120V121.167H518.341H519.507V122.333H520.673L521.839 123.5M521.839 123.5V123.5ZM521.839 123.5L523.004 124.667V123.5L524.17 124.667V125.833L525.336 127M525.336 127V127ZM525.336 127V128.167L526.502 129.333V130.5H527.668L528.834 131.667V132.833V134V136.333H530V137.5L528.834 138.667L530 139.833H528.834V141M528.834 141V141ZM528.834 141L530 142.167L528.834 143.333M528.834 143.333V143.333ZM528.834 143.333L527.668 144.5V145.667L526.502 146.833H525.336V148V149.167H524.17L523.004 150.333V151.5M523.004 151.5V151.5ZM523.004 151.5L521.839 152.667M521.839 152.667V152.667ZM521.839 152.667L520.673 153.833L519.507 155V156.167H518.341M518.341 156.167V156.167ZM518.341 156.167L517.175 158.5H516.009V159.667H514.843H513.677V160.833H511.345H510.179L509.013 162L507.847 163.167H506.681V164.333H505.515M505.515 164.333V164.333ZM505.515 164.333H503.184L499.686 166.667L497.354 167.833V170.167V171.333L496.188 172.5M496.188 172.5V172.5ZM496.188 172.5H495.022V173.667H493.856L492.69 174.833M492.69 174.833V174.833ZM492.69 174.833V176H491.524L490.358 177.167V178.333M490.358 178.333V178.333ZM490.358 178.333L489.192 181.833M489.192 181.833V181.833ZM489.192 181.833V183M489.192 183V183ZM489.192 183L488.027 184.167V185.333M488.027 185.333H489.192L488.027 186.5V185.333ZM488.027 185.333H486.861M486.861 185.333V185.333ZM486.861 185.333H485.695M485.695 185.333V185.333ZM485.695 185.333H484.529L483.363 186.5L481.031 187.667L478.699 188.833L477.533 190L476.367 191.167L475.201 190M475.201 190V190ZM475.201 190L472.869 188.833L471.704 187.667H469.372M469.372 187.667V187.667ZM469.372 187.667L468.206 186.5H467.04L464.708 185.333M464.708 185.333V185.333ZM464.708 185.333L462.376 186.5L460.044 185.333L458.878 184.167L456.546 183L455.381 184.167H454.215L453.049 185.333H451.883H450.717L449.551 186.5L448.385 187.667L446.053 188.833V190V191.167M446.053 191.167V191.167ZM446.053 191.167L447.219 192.333V193.5V194.667L448.385 195.833M448.385 195.833V195.833ZM448.385 195.833V197V198.167L447.219 197M447.219 197V197ZM447.219 197H446.053M446.053 197V197ZM446.053 197V198.167M446.053 198.167V198.167ZM446.053 198.167H447.219L446.053 199.333M446.053 199.333V199.333ZM446.053 199.333V200.5M446.053 200.5V200.5ZM446.053 200.5H444.887L443.721 201.667M443.721 201.667V201.667ZM443.721 201.667H442.555L436.726 204L434.394 205.167H429.73L428.564 206.333H427.398L425.066 208.667M425.066 208.667V208.667ZM425.066 208.667L423.9 209.833L422.735 212.167H421.569V213.333H419.237H415.739M415.739 213.333V213.333ZM415.739 213.333L414.573 214.5H413.407H412.241M412.241 214.5V214.5ZM412.241 214.5H411.075M411.075 214.5V214.5ZM411.075 214.5H408.743L407.577 215.667H404.08M404.08 215.667V215.667ZM404.08 215.667H401.748M401.748 215.667V215.667ZM401.748 215.667L397.084 214.5V215.667L395.918 214.5H393.586H392.42H391.254H390.089M390.089 214.5V214.5ZM390.089 214.5L386.591 215.667H385.425L383.093 218L381.927 219.167M381.927 219.167V219.167ZM381.927 219.167L380.761 220.333V221.5L379.595 222.667M379.595 222.667V222.667ZM379.595 222.667H378.429L376.097 223.833V225L373.765 226.167M373.765 226.167V226.167ZM373.765 226.167L372.6 227.333M372.6 227.333V227.333ZM372.6 227.333L370.268 228.5V229.667H369.102V230.833H367.936M367.936 230.833V230.833ZM367.936 230.833L366.77 232H365.604L364.438 233.167L363.272 234.333L360.94 235.5V236.667M360.94 236.667V236.667ZM360.94 236.667L359.774 237.833V239H358.608L357.442 240.167M357.442 240.167V240.167ZM357.442 240.167L356.277 241.333L355.111 242.5H353.945L352.779 243.667L351.613 244.833L350.447 246L348.115 247.167L346.949 248.333L344.617 250.667V251.833V254.167V255.333L345.783 257.667M345.783 257.667V257.667ZM345.783 257.667V258.833V261.167L346.949 262.333V263.5V264.667L345.783 268.167V269.333L343.451 271.667H342.285H341.119L339.954 272.833H338.788V271.667L337.622 272.833H336.456M336.456 272.833V272.833ZM336.456 272.833L335.29 274H332.958L331.792 275.167M331.792 275.167V275.167ZM331.792 275.167H330.626L329.46 276.333V277.5M329.46 277.5V277.5ZM329.46 277.5H330.626V278.667L329.46 277.5ZM329.46 277.5H328.294V278.667H327.128L325.962 277.5V278.667L324.796 277.5V279.833V281V282.167M324.796 282.167V282.167ZM324.796 282.167V284.5L323.631 285.667M323.631 285.667V285.667ZM323.631 285.667V286.833L321.299 285.667L322.465 283.333L321.299 282.167M321.299 282.167V282.167ZM321.299 282.167H322.465M322.465 282.167V282.167ZM322.465 282.167H323.631V281M323.631 281V281ZM323.631 281V279.833L322.465 278.667H321.299V279.833M321.299 279.833V279.833ZM321.299 279.833V281H320.133V279.833H318.967V281H317.801V283.333L316.635 282.167M316.635 282.167V282.167ZM316.635 282.167H315.469L314.303 283.333V284.5L313.137 283.333V284.5V285.667V286.833V288L311.971 289.167V290.333M311.971 290.333V290.333ZM311.971 290.333L310.805 291.5L311.971 292.667V293.833M311.971 293.833V293.833ZM311.971 293.833H313.137V292.667L314.303 293.833M314.303 293.833V293.833ZM314.303 293.833L315.469 295L316.635 296.167V297.333V298.5M316.635 298.5V298.5ZM316.635 298.5L317.801 299.667M317.801 299.667V299.667ZM317.801 299.667V300.833M317.801 300.833V300.833ZM317.801 300.833H320.133M320.133 300.833V300.833ZM320.133 300.833H321.299V302L322.465 303.167H323.631H324.796H325.962M325.962 303.167V303.167ZM325.962 303.167H327.128L325.962 302M325.962 302V302ZM325.962 302L324.796 299.667V298.5M324.796 298.5V298.5ZM324.796 298.5L325.962 297.333M325.962 297.333V297.333ZM325.962 297.333V295V293.833V292.667V291.5M325.962 291.5V291.5ZM325.962 291.5V290.333V289.167H327.128M327.128 289.167V289.167ZM327.128 289.167L328.294 290.333M328.294 290.333V290.333ZM328.294 290.333V291.5L329.46 292.667L328.294 295L329.46 296.167V298.5M329.46 298.5V298.5ZM329.46 298.5V299.667L330.626 303.167M330.626 303.167V303.167ZM330.626 303.167H331.792V304.333M331.792 304.333V304.333ZM331.792 304.333V305.5L332.958 306.667V307.833H334.124M334.124 307.833V307.833ZM334.124 307.833V309M334.124 309V309ZM334.124 309H335.29V310.167M335.29 310.167V310.167ZM335.29 310.167H334.124M334.124 310.167V310.167ZM334.124 310.167L332.958 311.333L331.792 312.5V313.667M331.792 313.667V313.667ZM331.792 313.667L329.46 316V317.167H328.294V318.333L327.128 319.5V320.667V321.833L325.962 323H323.631L321.299 324.167L320.133 325.333H318.967V326.5H315.469L314.303 327.667L310.805 328.833L309.639 327.667L308.473 328.833H307.308M307.308 328.833V328.833ZM307.308 328.833H304.976H303.81M303.81 328.833V330M303.81 328.833H302.644H301.478H299.146M299.146 328.833V328.833ZM299.146 328.833H297.98H296.814H294.482H293.316H292.15H290.985H289.819V327.667L288.653 328.833H286.321V327.667H283.989H282.823L280.491 326.5H278.159L275.827 325.333L273.496 324.167M273.496 324.167V324.167ZM273.496 324.167H272.33V321.833M272.33 321.833V321.833ZM272.33 321.833L271.164 320.667H272.33L271.164 319.5M271.164 319.5V319.5ZM271.164 319.5L272.33 318.333V317.167M272.33 317.167V317.167ZM272.33 317.167V316H273.496V314.833M273.496 314.833V314.833ZM273.496 314.833L274.661 313.667L275.827 314.833L278.159 312.5L279.325 313.667L280.491 312.5L281.657 311.333H282.823L285.155 310.167V309V306.667M285.155 306.667V306.667ZM285.155 306.667L286.321 305.5V306.667L287.487 305.5L288.653 304.333M288.653 304.333V304.333ZM288.653 304.333H289.819H290.985M290.985 304.333V304.333ZM290.985 304.333L292.15 303.167H293.316L294.482 302L295.648 300.833M295.648 300.833V300.833ZM295.648 300.833L296.814 299.667V300.833L297.98 299.667L299.146 300.833V299.667L300.312 300.833M300.312 300.833V300.833ZM300.312 300.833L302.644 302L303.81 300.833M303.81 300.833V300.833ZM303.81 300.833L304.976 299.667L306.142 297.333V295V293.833V292.667V291.5L304.976 290.333L303.81 288H302.644H299.146V286.833H302.644M302.644 286.833V286.833ZM302.644 286.833V283.333V282.167H303.81V281V279.833L304.976 278.667H306.142V277.5V276.333V274L304.976 272.833V270.5L303.81 268.167L302.644 264.667M302.644 264.667V264.667ZM302.644 264.667L301.478 263.5V262.333H300.312L299.146 260M299.146 260V260ZM299.146 260L297.98 257.667L296.814 256.5L295.648 255.333L293.316 253M293.316 253V253ZM293.316 253L292.15 251.833L289.819 250.667L288.653 249.5L287.487 247.167L286.321 246M286.321 246V246ZM286.321 246H285.155L282.823 244.833L281.657 243.667H279.325V242.5H278.159V241.333M278.159 241.333V241.333ZM278.159 241.333V240.167H276.993V237.833H275.827M275.827 237.833V237.833ZM275.827 237.833L274.661 236.667V235.5H273.496M273.496 235.5V235.5ZM273.496 235.5L272.33 233.167M272.33 233.167V233.167ZM272.33 233.167V232L271.164 230.833V229.667L269.998 227.333M269.998 227.333V227.333ZM269.998 227.333L268.832 225H267.666V223.833H266.5M266.5 223.833V223.833ZM266.5 223.833V222.667L264.168 221.5V220.333L263.002 219.167M263.002 219.167V219.167ZM263.002 219.167L261.836 218M261.836 218V218ZM261.836 218L260.67 216.833H259.504L258.338 215.667M258.338 215.667V215.667ZM258.338 215.667L257.173 214.5V213.333H256.007V212.167H254.841L251.343 209.833L250.177 208.667M250.177 208.667V208.667ZM250.177 208.667H251.343M250.177 208.667L251.343 207.5V208.667M250.177 208.667L249.011 207.5L247.845 206.333H246.679M251.343 208.667V208.667ZM246.679 206.333V206.333ZM246.679 206.333L245.513 205.167L243.181 204H242.015V202.833M242.015 202.833V202.833ZM242.015 202.833V201.667H240.85H239.684L238.518 200.5L236.186 199.333M236.186 199.333V199.333ZM236.186 199.333V198.167M236.186 198.167V198.167ZM236.186 198.167L235.02 195.833V194.667H233.854L232.688 193.5L231.522 192.333M231.522 192.333V192.333ZM231.522 192.333V191.167L229.19 190M229.19 190V188.833M229.19 190H228.024L226.858 188.833V187.667M226.858 187.667V187.667ZM226.858 187.667H225.692V186.5L223.361 185.333H222.195L221.029 184.167M221.029 184.167V184.167ZM221.029 184.167L219.863 183H218.697H217.531V181.833M217.531 181.833V181.833ZM217.531 181.833L216.365 180.667L214.033 178.333M214.033 178.333V178.333ZM214.033 178.333L212.867 177.167M212.867 177.167L214.033 176M212.867 177.167L211.701 176V174.833M211.701 174.833V174.833ZM211.701 174.833L209.369 173.667L208.204 172.5H205.872L204.706 171.333L202.374 170.167L201.208 169L200.042 167.833H198.876L197.71 166.667L191.881 164.333H190.715L189.549 163.167M189.549 163.167V163.167ZM189.549 163.167H188.383M188.383 163.167V163.167ZM188.383 163.167H186.051L184.885 162H183.719L181.387 160.833L180.221 159.667H177.889L176.723 158.5M176.723 158.5V158.5ZM176.723 158.5L175.558 157.333M175.558 157.333V157.333ZM175.558 157.333V158.5M175.558 158.5V158.5Z" stroke="white" stroke-width="2"/>
</svg>
