<svg width="19" height="11" viewBox="0 0 19 11" fill="none" xmlns="http://www.w3.org/2000/svg">
<path d="M0.424999 8.70002L8.825 0.275016C8.925 0.175016 9.03333 0.104016 9.15 0.0620156C9.26667 0.0200156 9.39167 -0.000651042 9.525 1.5625e-05C9.65833 1.5625e-05 9.78333 0.0210156 9.9 0.0630156C10.0167 0.105016 10.125 0.175682 10.225 0.275016L18.65 8.70002C18.8833 8.93335 19 9.22502 19 9.57502C19 9.92502 18.875 10.225 18.625 10.475C18.375 10.725 18.0833 10.85 17.75 10.85C17.4167 10.85 17.125 10.725 16.875 10.475L9.525 3.12502L2.175 10.475C1.94167 10.7083 1.654 10.825 1.312 10.825C0.970001 10.825 0.674332 10.7 0.424999 10.45C0.174999 10.2 0.0499992 9.90835 0.0499992 9.57502C0.0499992 9.24168 0.174999 8.95002 0.424999 8.70002Z" fill="white"/>
</svg>
