<svg width="68" height="59" viewBox="0 0 68 59" fill="none" xmlns="http://www.w3.org/2000/svg">
<path d="M20.8633 39.1939C24.9133 40.0144 25.851 43.0216 26.787 45.1426H26L25.4585 44.1169C25.2425 44.1867 24.6253 44.1169 24.4633 44.1169C19.5133 44.1169 18.6133 37.1426 18.6133 37.1426C19.0633 37.9631 22.2133 38.0657 24.4633 38.4759C26.7133 38.8862 27.6133 40.6298 27.6133 41.4503C27.6133 42.2708 26.8258 42.9887 26.8258 42.9887C25.3633 39.1939 20.8633 39.1939 20.8633 39.1939Z" fill="#4CAF50"/>
<path fill-rule="evenodd" clip-rule="evenodd" d="M10.2646 17.7759H10.1593L10.054 17.6706H9.94871H9.84341L9.73811 17.5653H9.63281H9.73811L9.84341 17.46H10.054H10.2646H10.4752L10.5805 17.5653L10.4752 17.6706H10.3699L10.2646 17.7759Z" fill="white"/>
<path fill-rule="evenodd" clip-rule="evenodd" d="M36.7999 42.1L36.6946 42.2053L36.5893 42.3106L36.484 42.2053H36.3787L36.2734 42.1V41.8894V41.7841H36.3787V41.6788V41.5735V41.4682H36.484L36.5893 41.3629V41.2576L36.6946 41.1523L36.7999 41.2576V41.1523H36.9052H37.0105H37.1158V41.2576H37.2211V41.3629V41.4682L37.1158 41.3629H37.0105V41.4682V41.5735L36.9052 41.6788H37.0105L37.1158 41.5735V41.6788L37.2211 41.5735V41.4682L37.3264 41.3629L37.4317 41.4682H37.3264V41.5735L37.2211 41.6788V41.7841H37.1158L37.0105 41.8894L36.9052 41.9947V41.8894H36.7999L36.6946 41.7841H36.5893V41.8894L36.6946 41.9947H36.7999V42.1Z" fill="white"/>
<path fill-rule="evenodd" clip-rule="evenodd" d="M46.1715 42.6264V42.5211H46.0662V42.6264L45.9609 42.5211H46.0662L45.9609 42.4158H45.8556V42.3105L45.7503 42.2052L45.645 42.3105L45.7503 42.2052H45.5397V42.0999L45.4344 41.9946L45.3291 42.0999H45.2238H45.1185H45.0132H44.9079V41.9946H45.0132V41.784V41.6787H44.9079V41.5734H44.8026H44.6973V41.4681H44.8026H44.9079V41.3628H44.8026L44.6973 41.2575H44.8026V41.1522V41.0469H44.9079H45.0132H44.9079L45.0132 40.9416L45.1185 41.0469L45.0132 40.9416H45.1185L45.2238 40.8363H45.1185V40.731L45.2238 40.6257H45.3291H45.2238L45.3291 40.5204H45.4344H45.3291L45.4344 40.4151H45.5397V40.3098L45.645 40.0992L45.7503 39.9939V39.8886H45.8556L45.9609 39.7833L46.0662 39.678H46.1715H46.2768V39.4674L46.3821 39.3621L46.4874 39.2568H46.698H46.9086L47.2245 39.3621L47.3298 39.4674H47.4351H47.5404H47.751H47.8563L48.0669 39.3621H48.1722H48.3828L48.5934 39.2568H48.6987H48.9093H49.0146L49.3305 39.3621V39.4674L49.4358 39.5727L49.6464 39.7833L49.7517 39.8886L49.857 40.2045V40.3098V40.4151V40.5204L50.0676 40.731L50.1729 40.8363L50.2782 40.9416V41.0469V41.1522V41.2575H50.3835L50.4888 41.4681H50.5941L50.6994 41.5734H50.8047L50.91 41.6787V41.784V41.8893H51.0153L51.1206 41.9946L51.2259 42.0999V42.2052L51.3312 42.3105V42.5211V42.6264V42.5211V42.6264L51.4365 42.7317V42.837V42.9423V43.0476H51.3312H51.2259V43.1529H51.1206V43.2582H51.0153V43.3635L50.91 43.4688H50.8047V43.5741L50.6994 43.6794H50.8047H50.6994V43.7847V43.89L50.5941 43.9953L50.6994 44.2059H50.5941L50.6994 44.3112V44.4165V44.3112H50.4888V44.4165V44.3112H50.3835V44.4165L50.2782 44.5218H50.1729V44.6271L50.0676 44.7324L49.9623 44.8377L49.857 44.7324H49.7517L49.6464 44.5218H49.4358H49.3305H49.2252V44.4165L49.1199 44.3112H49.0146L48.9093 44.2059H48.804H48.6987H48.5934L48.4881 44.1006H48.3828L48.1722 43.9953V44.1006V43.9953H48.0669H47.9616H47.8563H47.751V43.89V43.7847H47.5404L47.6457 43.6794H47.5404L47.6457 43.5741H47.5404L47.4351 43.4688V43.3635H47.3298L47.1192 43.2582V43.1529H47.0139H46.9086H46.8033H46.698V43.0476H46.5927V42.9423L46.4874 43.0476L46.3821 42.9423H46.2768V42.837L46.1715 42.9423V42.837V42.6264Z" fill="white"/>
<path fill-rule="evenodd" clip-rule="evenodd" d="M44.8021 40.2054L44.9074 40.1001L45.0127 39.9948L45.2233 39.8895H45.3286L45.4339 39.7842V39.8895L45.3286 39.9948V40.1001L45.2233 40.3107L45.0127 40.416L44.9074 40.5213H44.8021V40.6266L44.6968 40.7319V40.6266H44.5915V40.7319H44.4862V40.6266V40.7319V40.6266H44.3809V40.5213H44.4862V40.416V40.3107H44.6968L44.8021 40.2054Z" fill="white"/>
<path fill-rule="evenodd" clip-rule="evenodd" d="M44.5908 40.0997H44.4855H44.3802H44.2749L44.1696 39.9944H44.0643V39.8891V39.7838L43.959 39.6785H44.0643L44.1696 39.5732V39.6785H44.2749V39.5732H44.3802H44.4855H44.6961V39.3626V39.2573L44.8014 39.152V38.9414H44.9067H45.012H45.1173L45.4332 39.0467H45.5385H45.6438V39.2573H45.7491L45.6438 39.3626H45.5385L45.6438 39.4679H45.5385L45.4332 39.5732V39.6785L45.3279 39.5732V39.6785H45.2226V39.7838L45.012 39.8891V39.9944L44.8014 40.0997H44.5908Z" fill="white"/>
<path fill-rule="evenodd" clip-rule="evenodd" d="M22.2685 30.412H21.9526L21.8473 30.3067H21.6367H21.5314L21.4261 30.2014H21.3208V30.0961L21.2155 29.9908L21.0049 29.8855H20.8996V29.7802V29.6749L20.7943 29.5696H20.689L20.4784 29.4643L20.1625 29.359L19.8466 29.2537H19.636L19.4254 29.1484H19.2148L18.8989 29.0431L18.2671 28.9378H17.9512L17.53 28.8325L17.0035 28.9378H16.5823H16.1611L15.0028 29.2537H14.4763V29.359L14.0551 29.2537H13.8445H13.6339L13.4233 29.1484V29.0431L13.2127 29.1484H13.1074H13.0021L12.7915 29.0431L12.5809 28.9378V28.8325V28.7272L12.3703 28.5166H12.265L12.3703 28.4113L12.1597 28.2007L11.9491 27.9901H11.8438V27.8848H11.7385L11.6332 27.7795V27.6742L11.4226 27.4636L11.3173 27.3583L11.212 27.253V27.0424H11.1067L10.8961 26.8318H10.7908L10.6855 26.7265H10.5802L10.3696 26.5159L10.2643 26.4106L10.159 26.2V25.9894V26.0947V26.2L10.2643 26.3053V26.2V26.0947V25.9894V25.8841V25.6735L10.159 25.5682L10.0537 25.3576H9.9484L9.6325 25.147V25.0417L9.5272 24.9364V24.8311L9.4219 24.7258H9.3166L9.106 24.6205V24.5152L9.0007 24.4099H8.8954V24.3046V24.1993L8.7901 24.094V23.9887L8.6848 23.8834L8.5795 23.6728L8.4742 23.5675L8.3689 23.2516L8.1583 23.041V22.9357H8.053V22.8304L7.9477 22.7251L7.8424 22.6198V22.5145H7.7371L7.6318 22.1986L7.5265 21.8827L7.4212 21.7774V21.6721V21.5668L7.3159 21.3562V21.2509V21.0403L7.2106 20.935L7.1053 20.8297L7 20.7244L7.1053 20.6191L7 20.5138V20.4085V20.3032V20.1979H7.1053V20.0926H7.2106V20.1979H7.3159L7.4212 20.3032H7.3159H7.2106L7.3159 20.4085H7.4212H7.5265L7.4212 20.6191H7.3159L7.2106 20.5138V20.6191V20.7244H7.3159V20.8297L7.4212 20.935H7.3159V21.0403H7.4212V20.935H7.5265L7.6318 20.8297L7.7371 20.7244L7.8424 20.6191L7.9477 20.4085V20.6191H8.053L8.1583 20.5138H8.2636L8.3689 20.4085H8.4742L8.5795 20.3032H8.6848V20.1979L8.4742 19.9873H8.3689H8.2636L8.1583 20.0926L8.053 19.9873H7.9477H7.8424H7.7371L7.6318 19.882H7.5265V19.7767H7.4212V19.6714V19.5661L7.5265 19.4608V19.3555L7.4212 19.0396V18.9343L7.3159 18.829L7.2106 18.7237L7.1053 18.6184V18.5131H7L7.1053 18.4078V18.3025V18.0919V17.8813V17.776V17.6707L7.2106 17.5654L7.5265 17.4601H7.6318H7.7371L8.1583 17.5654H8.4742H8.8954H9.0007H9.2113H9.3166V17.6707H9.4219V17.776H9.5272V17.8813H9.6325L9.7378 18.0919V18.1972L9.8431 18.3025H9.9484L10.0537 18.6184H10.159V18.7237L10.2643 18.829L10.3696 18.9343V19.0396V19.1449V19.2502H10.2643L10.3696 19.1449L10.2643 19.0396V19.1449V19.2502H10.159V19.3555L10.0537 19.4608H10.159V19.5661H10.0537L9.9484 19.6714H10.0537H10.159L10.2643 19.7767H10.3696H10.4749H10.5802L10.6855 19.6714L10.7908 19.5661L11.0014 19.3555V19.2502H11.212V19.1449H11.3173L11.4226 19.0396L11.5279 18.9343H11.6332L11.7385 19.0396V19.1449H11.6332L11.7385 19.2502L11.8438 19.3555H11.9491L12.0544 19.2502H12.1597L12.0544 19.1449H11.9491H11.8438L11.7385 19.0396L11.8438 18.9343H11.9491L12.1597 18.829V18.7237L12.265 18.829V18.7237V18.6184H12.3703H12.4756V18.5131H12.6862V18.6184H12.7915L12.8968 18.5131L13.0021 18.6184V18.7237V18.829L12.8968 18.9343L12.7915 18.829L12.8968 19.0396L13.0021 19.2502H13.1074L13.2127 19.1449V19.2502L13.318 19.1449V19.2502L13.4233 19.1449L13.5286 19.0396L13.6339 18.9343V19.0396L13.7392 18.9343V18.829L13.8445 18.7237V18.6184H13.9498V18.7237L14.1604 18.829H14.371L14.4763 18.9343H14.5816V19.1449H14.6869H14.7922H14.8975V19.0396V18.9343L15.0028 19.1449H15.1081L15.3187 19.3555L15.424 19.4608H15.5293V19.3555H15.6346V19.4608H15.7399H15.8452V19.5661H16.0558L16.1611 19.4608H16.2664H16.3717H16.477L16.5823 19.3555L16.7929 19.4608L16.8982 19.5661L17.0035 19.6714H17.1088V19.7767H17.2141L17.4247 19.882V19.7767L17.53 19.6714V19.7767V19.882H17.7406H17.9512V19.9873H18.2671L18.3724 20.0926L18.4777 20.1979H18.583V20.3032H18.6883H18.7936L18.8989 20.4085L19.0042 20.3032V20.4085H19.1095H19.3201L19.4254 20.5138H19.5307H19.636H19.9519L20.0572 20.6191H20.1625L20.3731 20.7244H20.4784H20.5837L20.689 20.8297H20.7943H20.8996L21.0049 20.935L21.1102 21.0403L21.2155 20.935H21.3208V21.0403L21.4261 21.1456L21.5314 21.2509H21.6367H21.742L21.8473 21.0403V21.1456L21.9526 21.2509H22.0579H22.1632V21.1456H22.2685L22.3738 21.2509L22.5844 21.3562H22.6897H22.795H22.9003H23.1109H23.2162H23.3215H23.4268H23.6374V21.2509H23.7427L23.848 21.1456H23.9533H24.0586L24.1639 21.0403L24.2692 21.1456L24.4798 21.0403L24.5851 20.935V20.8297L24.7957 20.935H25.0063L25.2169 20.8297H25.3222H25.4275H25.5328L25.7434 20.935H25.954L26.1646 20.8297H26.2699H26.4805H26.5858H26.6911H26.7964H27.2176H27.4282L27.6388 20.7244H27.7441L27.8494 20.6191H28.06H28.1653L28.2706 20.5138H28.3759V20.3032L28.4812 20.1979H28.5865H28.6918H28.7971H28.9024L29.0077 20.0926L29.113 19.9873V19.882V19.7767H29.2183L29.4289 19.6714L29.6395 19.5661L29.7448 19.4608H29.8501L29.9554 19.3555V19.2502L30.0607 19.1449L30.166 19.0396L30.2713 18.9343V18.829H30.3766L30.4819 18.7237V18.6184L30.5872 18.5131H30.6925L30.7978 18.4078L30.9031 18.3025V18.1972L31.0084 18.0919H31.1137V17.9866L31.219 17.8813H31.4296L31.6402 17.776L32.0614 17.3548L32.272 17.2495L32.3773 17.1442L32.4826 17.0389H32.5879H32.6932L33.0091 16.9336L33.1144 16.8283L33.4303 16.723L33.7462 16.5124L33.9568 16.4071H34.0621H34.378L34.9045 16.3018H35.0098L35.1151 16.4071L35.2204 16.5124H35.3257H35.431L35.5363 16.723H35.6416L35.7469 16.8283H35.9575L36.1681 16.9336L36.484 17.0389H36.6946L36.7999 17.1442H37.0105H37.2211H37.3264L37.6423 17.2495H37.7476H37.8529L37.9582 17.3548H38.0635L38.1688 17.4601L38.3794 17.6707H38.4847H38.59L38.8006 17.776V17.8813H39.0112H39.2218L39.3271 17.9866H39.5377H39.643L39.7483 18.0919H39.8536L39.9589 18.1972H40.0642H40.1695H40.3801H40.4854H40.5907H40.696L40.9066 18.3025V18.4078V18.5131H41.0119L41.1172 18.6184L41.3278 18.7237L41.4331 18.829H41.5384H41.749L41.8543 18.9343H41.9596H42.0649L42.1702 19.0396H42.2755H42.3808L42.5914 19.1449L42.9073 19.2502L43.1179 19.3555L43.2232 19.4608L43.4338 19.5661V19.6714H43.5391H43.7497L43.855 19.7767H43.9603H44.1709L44.2762 19.882H44.3815H44.4868L44.6974 19.9873L44.908 20.0926H45.0133L45.1186 20.1979V20.4085H45.2239H45.3292L45.4345 20.6191H45.5398L45.6451 20.7244H45.7504L46.0663 20.8297H46.1716L46.2769 21.0403L46.3822 21.1456H46.4875L46.5928 21.2509H46.8034V21.4615L47.014 21.6721V21.7774H47.2246L47.4352 21.8827L47.6458 22.0933H47.7511L47.9617 22.1986H48.067L48.1723 22.3039L48.2776 22.4092H48.3829L48.4882 22.5145L48.6988 22.6198L48.9094 22.7251L49.0147 22.9357L49.12 23.041H49.2253L49.3306 23.2516L49.4359 23.3569H49.5412L49.6465 23.5675H49.7518V23.6728L49.9624 23.8834L50.0677 24.094L50.173 24.3046L50.2783 24.5152H50.3836L50.4889 24.6205V24.7258H50.5942V24.8311L50.6995 24.9364L50.8048 25.0417L50.9101 25.147H51.0154V25.2523H51.1207V25.4629L51.226 25.5682L51.3313 25.7788V25.8841L51.4366 25.9894V26.0947L51.5419 26.2H51.6472L51.7525 26.3053L51.9631 26.5159H52.0684L52.279 26.6212L52.3843 26.5159L52.4896 26.6212H52.5949V26.7265H52.7002L52.8055 26.6212L52.9108 26.8318H53.0161L53.1214 26.9371H53.2267L53.4373 27.0424V27.1477H53.5426H53.6479V27.253H53.7532L53.8585 27.3583L53.9638 27.4636V27.3583L54.0691 27.4636V27.5689L54.1744 27.6742V27.7795L54.2797 27.8848V27.9901H54.385L54.4903 28.0954V28.2007V28.306V28.5166H54.5956V28.6219L54.4903 28.7272L54.5956 28.8325H54.4903V28.9378L54.5956 29.0431L54.4903 29.1484L54.385 29.2537V29.359L54.2797 29.4643H54.1744V29.5696V29.6749H54.0691L53.9638 29.7802V29.8855L53.8585 29.9908L53.7532 30.0961L53.6479 30.2014V30.3067H53.5426L53.4373 30.5173H53.332V30.6226H53.2267H53.1214V30.7279H52.9108H52.8055L52.7002 30.8332L52.5949 30.9385H52.4896V31.0438H52.3843H52.1737L51.8578 31.2544L51.6472 31.3597V31.5703V31.6756L51.5419 31.7809H51.4366V31.8862H51.3313L51.226 31.9915V32.0968H51.1207L51.0154 32.2021V32.3074L50.9101 32.6233V32.7286L50.8048 32.8339V32.9392H50.9101L50.8048 33.0445V32.9392H50.6995H50.5942H50.4889L50.3836 33.0445L50.173 33.1498L49.9624 33.2551L49.8571 33.3604L49.7518 33.4657L49.6465 33.3604L49.4359 33.2551L49.3306 33.1498H49.12L49.0147 33.0445H48.9094L48.6988 32.9392L48.4882 33.0445L48.2776 32.9392L48.1723 32.8339L47.9617 32.7286L47.8564 32.8339H47.7511L47.6458 32.9392H47.5405H47.4352L47.3299 33.0445L47.2246 33.1498L47.014 33.2551V33.3604V33.4657L47.1193 33.571V33.6763V33.7816L47.2246 33.8869V33.9922V34.0975L47.1193 33.9922H47.014V34.0975H47.1193L47.014 34.2028V34.3081H46.9087L46.8034 34.4134H46.6981L46.1716 34.624L45.961 34.7293H45.5398L45.4345 34.8346H45.3292L45.1186 35.0452L45.0133 35.1505L44.908 35.3611H44.8027V35.4664H44.5921H44.2762L44.1709 35.5717H44.0656H43.9603H43.855H43.6444L43.5391 35.677H43.2232H43.0126L42.5914 35.5717V35.677L42.4861 35.5717H42.2755H42.1702H42.0649H41.9596L41.6437 35.677H41.5384L41.3278 35.8876L41.2225 35.9929L41.1172 36.0982V36.2035L41.0119 36.3088H40.9066L40.696 36.4141V36.5194L40.4854 36.6247L40.3801 36.73L40.1695 36.8353V36.9406H40.0642V37.0459H39.9589L39.8536 37.1512H39.7483L39.643 37.2565L39.5377 37.3618L39.3271 37.4671V37.5724L39.2218 37.6777V37.783H39.1165L39.0112 37.8883L38.9059 37.9936L38.8006 38.0989H38.6953L38.59 38.2042L38.4847 38.3095L38.3794 38.4148L38.1688 38.5201L38.0635 38.6254L37.8529 38.836V38.9413V39.1519V39.2572L37.9582 39.4678V39.5731V39.7837L38.0635 39.889V39.9943V40.0996L37.9582 40.4155V40.5208L37.7476 40.7314H37.6423H37.537L37.4317 40.8367H37.3264V40.7314L37.2211 40.8367H37.1158L37.0105 40.942H36.7999L36.6946 41.0473H36.5893L36.484 41.1526V41.2579H36.5893V41.3632L36.484 41.2579H36.3787V41.3632H36.2734L36.1681 41.2579V41.3632L36.0628 41.2579V41.4685V41.5738V41.6791V41.8897L35.9575 41.995V42.1003L35.7469 41.995L35.8522 41.7844L35.7469 41.6791H35.8522H35.9575V41.5738V41.4685L35.8522 41.3632H35.7469V41.4685V41.5738H35.6416V41.4685H35.5363V41.5738H35.431V41.7844L35.3257 41.6791H35.2204L35.1151 41.7844V41.8897L35.0098 41.7844V41.8897V41.995V42.1003V42.2056L34.9045 42.3109V42.4162L34.7992 42.5215L34.9045 42.6268V42.7321H35.0098V42.6268L35.1151 42.7321L35.2204 42.8374L35.3257 42.9427V43.048V43.1533L35.431 43.2586V43.3639H35.6416H35.7469V43.4692L35.8522 43.5745H35.9575H36.0628H36.1681H36.2734L36.1681 43.4692L36.0628 43.2586V43.1533L36.1681 43.048V42.8374V42.7321V42.6268V42.5215V42.4162V42.3109H36.2734L36.3787 42.4162V42.5215L36.484 42.6268L36.3787 42.8374L36.484 42.9427V43.1533V43.2586L36.5893 43.5745H36.6946V43.6798V43.7851L36.7999 43.8904V43.9957H36.9052V44.101H37.0105V44.2063H36.9052L36.7999 44.3116L36.6946 44.4169V44.5222L36.484 44.7328V44.8381H36.3787V44.9434L36.2734 45.0487V45.154V45.2593L36.1681 45.3646H35.9575L35.7469 45.4699L35.6416 45.5752H35.5363V45.6805H35.2204L35.1151 45.7858L34.7992 45.8911L34.6939 45.7858L34.5886 45.8911H34.4833H34.2727H34.1674H34.0621H33.9568H33.7462H33.6409H33.5356H33.325H33.2197H33.1144H33.0091H32.9038V45.7858L32.7985 45.8911H32.5879V45.7858H32.3773H32.272L32.0614 45.6805H31.8508L31.6402 45.5752L31.4296 45.4699H31.3243V45.2593L31.219 45.154H31.3243L31.219 45.0487L31.3243 44.9434V44.8381V44.7328H31.4296V44.6275L31.5349 44.5222L31.6402 44.6275L31.8508 44.4169L31.9561 44.5222L32.0614 44.4169L32.1667 44.3116H32.272L32.4826 44.2063V44.101V43.8904L32.5879 43.7851V43.8904L32.6932 43.7851L32.7985 43.6798H32.9038H33.0091L33.1144 43.5745H33.2197L33.325 43.4692L33.4303 43.3639L33.5356 43.2586V43.3639L33.6409 43.2586L33.7462 43.3639V43.2586L33.8515 43.3639L34.0621 43.4692L34.1674 43.3639L34.2727 43.2586L34.378 43.048V42.8374V42.7321V42.6268V42.5215L34.2727 42.4162L34.1674 42.2056H34.0621H33.7462V42.1003H34.0621V41.7844V41.6791H34.1674V41.5738V41.4685L34.2727 41.3632H34.378V41.2579V41.1526V40.942L34.2727 40.8367V40.6261L34.1674 40.4155L34.0621 40.0996L33.9568 39.9943V39.889H33.8515L33.7462 39.6784L33.6409 39.4678L33.5356 39.3625L33.4303 39.2572L33.2197 39.0466L33.1144 38.9413L32.9038 38.836L32.7985 38.7307L32.6932 38.5201L32.5879 38.4148H32.4826L32.272 38.3095L32.1667 38.2042H31.9561V38.0989H31.8508V37.9936V37.8883H31.7455V37.6777H31.6402L31.5349 37.5724V37.4671H31.4296L31.3243 37.2565V37.1512L31.219 37.0459V36.9406L31.1137 36.73L31.0084 36.5194H30.9031V36.4141H30.7978V36.3088L30.5872 36.2035V36.0982L30.4819 35.9929L30.3766 35.8876L30.2713 35.7823H30.166L30.0607 35.677L29.9554 35.5717V35.4664H29.8501V35.3611H29.7448L29.4289 35.1505L29.3236 35.0452H29.4289V34.9399L29.3236 35.0452L29.2183 34.9399L29.113 34.8346H29.0077L28.9024 34.7293L28.6918 34.624H28.5865V34.5187V34.4134H28.4812H28.3759L28.2706 34.3081L28.06 34.2028V34.0975L27.9547 33.8869V33.7816H27.8494L27.7441 33.6763L27.6388 33.571V33.4657L27.4282 33.3604H27.3229L27.2176 33.2551V33.1498H27.1123V33.0445L26.9017 32.9392H26.7964L26.6911 32.8339L26.5858 32.7286H26.4805H26.3752V32.6233L26.2699 32.518L26.0593 32.3074L25.954 32.2021L25.8487 32.0968V31.9915L25.6381 31.8862L25.5328 31.7809H25.3222L25.2169 31.6756L25.0063 31.5703L24.901 31.465L24.7957 31.3597H24.6904L24.5851 31.2544L24.0586 31.0438H23.9533L23.848 30.9385H23.7427H23.5321L23.4268 30.8332H23.3215L23.1109 30.7279L23.0056 30.6226H22.795L22.6897 30.5173L22.5844 30.412V30.5173L22.2685 30.412Z" fill="white"/>
<path d="M26 45.1154C28.6394 48.2692 32.4354 50.8645 36.4449 52.0711C40.4545 53.2778 44.7447 53.3095 48.7729 52.1623C52.8011 51.0151 56.3865 48.7405 59.0757 45.6261C61.7649 42.5117 63.437 38.6974 63.8807 34.6656C64.3243 30.6337 63.5196 26.5654 61.5682 22.9751C59.6168 19.3848 56.6065 16.4338 52.9178 14.4952C49.2291 12.5566 45.0278 11.7174 40.8451 12.0839C36.6624 12.4504 32.6863 14.0061 29.4194 16.5541L29.8137 17.0253C32.984 14.5525 36.8427 13.0428 40.9018 12.6872C44.9609 12.3315 49.0381 13.1458 52.6178 15.0272C56.1975 16.9085 59.1189 19.7723 61.0126 23.2566C62.9063 26.7408 63.6873 30.6889 63.2567 34.6016C62.8262 38.5143 61.2035 42.2159 58.5938 45.2382C55.9841 48.2606 52.5046 50.468 48.5954 51.5813C44.6862 52.6946 40.5227 52.6639 36.6316 51.4929C32.7405 50.3219 29.3526 48.176 26.7911 45.1154L26.5 45L26 45.1154Z" fill="#4CAF50"/>
</svg>
