<svg width="50" height="50" viewBox="0 0 50 50" fill="none" xmlns="http://www.w3.org/2000/svg">
<path d="M21.7666 46.4274L21.7666 28.2312L3.66465 28.2312C3.25193 28.244 2.84086 28.1734 2.45609 28.0236C2.07132 27.8737 1.72078 27.6477 1.42548 27.3591C0.800363 26.734 0.449173 25.8861 0.449173 25.0021C0.449172 24.118 0.800363 23.2702 1.42548 22.645C1.70896 22.3506 2.04963 22.1171 2.42657 21.9591C2.80352 21.801 3.20879 21.7216 3.61752 21.7258L21.8373 21.8436L21.8373 3.50601C21.8289 2.73749 22.1157 1.99505 22.6387 1.43183C23.2638 0.806709 24.1117 0.455522 24.9957 0.455522C25.8798 0.455522 26.7276 0.80671 27.3527 1.43183C27.6656 1.71976 27.9151 2.0696 28.0856 2.45914C28.256 2.84867 28.3435 3.26939 28.3427 3.69457L28.2248 21.7729L46.3739 21.7729C46.7788 21.7664 47.1809 21.8401 47.5571 21.9898C47.9334 22.1394 48.2762 22.3622 48.5659 22.645C49.1911 23.2702 49.5422 24.118 49.5422 25.0021C49.5422 25.8861 49.1911 26.734 48.5659 27.3591C48.2825 27.6536 47.9418 27.887 47.5648 28.0451C47.1879 28.2031 46.7826 28.2825 46.3739 28.2783L28.1541 28.1605L28.1541 46.4981C28.1625 47.2666 27.8757 48.0091 27.3527 48.5723C26.7276 49.1974 25.8798 49.5486 24.9957 49.5486C24.1117 49.5486 23.2638 49.1974 22.6387 48.5723C22.0801 47.9995 21.7666 47.2288 21.7666 46.4274Z" fill="#00265F"/>
</svg>
