<svg width="20" height="20" viewBox="0 0 20 20" fill="none" xmlns="http://www.w3.org/2000/svg">
<path d="M15.1172 13.9164C14.3589 15.1747 13.4006 14.7747 12.5006 14.2414C11.6006 13.7081 10.7506 13.0664 10.2089 13.8247C9.61722 14.4747 10.0756 15.5164 10.3089 16.4331C10.5422 17.3581 10.5589 18.1581 9.08389 18.3331C7.91722 18.1747 7.98389 17.2081 8.17556 16.1831C8.36722 15.1581 8.66722 14.0747 7.91722 13.6914C7.31722 13.2914 6.90056 13.9831 6.37556 14.6664C5.83389 15.3414 5.21722 15.9997 4.20056 15.5164C3.28389 14.7581 3.63389 14.3164 4.11722 13.7497C4.60056 13.1831 5.22556 12.4247 4.86722 11.0914C4.71722 10.5497 3.96722 10.6747 3.22556 10.6581C2.50056 10.6414 1.76722 10.4914 1.69222 9.40806C1.63389 8.74973 2.12556 8.48306 2.63389 8.27473C3.15056 8.0664 3.67556 7.9164 3.68389 7.3914C3.70889 6.88306 3.36722 6.52473 3.15056 6.14973C2.93389 5.77473 2.84222 5.38306 3.35889 4.79973C4.23389 4.08306 4.93389 4.6914 5.63389 5.34973C6.33389 6.00806 7.02556 6.69973 7.88389 6.15806C8.56722 5.70806 7.94222 4.9164 7.45889 4.1414C6.97556 3.3664 6.63389 2.62473 7.88389 2.28306C8.96722 1.98306 9.38389 2.72473 9.75889 3.58306C10.1422 4.4414 10.4756 5.4164 11.3922 5.5914C12.7006 5.83306 13.6506 4.29973 14.5589 3.08306C15.4672 1.8664 16.3589 0.958063 17.5006 2.45806C18.7506 4.03306 17.5589 4.7664 16.1672 5.4164C14.7756 6.02473 13.1756 6.55806 13.5589 7.73306C13.7839 8.4164 14.5172 8.0414 15.2922 7.78306C16.0589 7.52473 16.8839 7.38306 17.2839 8.55806C17.7089 9.79973 16.7006 10.0831 15.5672 10.1997C14.4339 10.3164 13.1672 10.2664 13.0839 10.8331C12.9922 11.4247 13.7506 11.6664 14.4089 12.0164C15.0672 12.3747 15.6256 12.8497 15.1172 13.9164ZM17.0839 15.8331C16.2922 15.8331 15.8839 15.2164 15.8839 14.5831C15.8839 13.9497 16.2839 13.3331 17.0839 13.3331C17.9172 13.3331 18.3339 13.9497 18.3339 14.5831C18.3339 15.2164 17.9172 15.8331 17.0839 15.8331Z" fill="#00265F"/>
</svg>
