<svg width="24" height="24" viewBox="0 0 24 24" fill="none" xmlns="http://www.w3.org/2000/svg">
<path d="M4.26056 10.1462C3.98551 12.2518 3.82161 14.3704 3.76956 16.4932C6.64835 17.6957 9.40472 19.1725 12.0006 20.9032C14.5967 19.1725 17.3534 17.6957 20.2326 16.4932C20.1805 14.3704 20.0166 12.2518 19.7416 10.1462M19.7416 10.1462C20.6166 9.85219 21.5036 9.58019 22.3996 9.33219C19.1361 7.04443 15.6525 5.08807 12.0006 3.49219C8.34855 5.08841 4.86496 7.0451 1.60156 9.33319C2.49484 9.57978 3.38118 9.85089 4.25956 10.1462C6.92822 11.0433 9.5175 12.1612 12.0006 13.4882C14.4833 12.1612 17.0733 11.0434 19.7416 10.1462ZM6.75056 14.9992C6.94948 14.9992 7.14024 14.9202 7.28089 14.7795C7.42155 14.6389 7.50056 14.4481 7.50056 14.2492C7.50056 14.0503 7.42155 13.8595 7.28089 13.7189C7.14024 13.5782 6.94948 13.4992 6.75056 13.4992C6.55165 13.4992 6.36088 13.5782 6.22023 13.7189C6.07958 13.8595 6.00056 14.0503 6.00056 14.2492C6.00056 14.4481 6.07958 14.6389 6.22023 14.7795C6.36088 14.9202 6.55165 14.9992 6.75056 14.9992ZM6.75056 14.9992V11.3242C8.4473 10.2695 10.1999 9.30745 12.0006 8.44219M4.99356 19.9922C5.55153 19.4356 5.994 18.7742 6.29553 18.046C6.59705 17.3179 6.75169 16.5373 6.75056 15.7492V14.2492" stroke="currentColor" stroke-width="1.5" stroke-linecap="round" stroke-linejoin="round"/>
</svg>
