<svg width="20" height="20" viewBox="0 0 20 20" fill="none" xmlns="http://www.w3.org/2000/svg">
<path d="M7 15.25V16.257C7.00005 16.6511 6.92244 17.0414 6.77162 17.4055C6.6208 17.7696 6.39971 18.1004 6.121 18.379L5.5 19H14.5L13.879 18.379C13.6003 18.1004 13.3792 17.7696 13.2284 17.4055C13.0776 17.0414 13 16.6511 13 16.257V15.25M19 3.25V13C19 13.5967 18.7629 14.169 18.341 14.591C17.919 15.0129 17.3467 15.25 16.75 15.25H3.25C2.65326 15.25 2.08097 15.0129 1.65901 14.591C1.23705 14.169 1 13.5967 1 13V3.25M19 3.25C19 2.65326 18.7629 2.08097 18.341 1.65901C17.919 1.23705 17.3467 1 16.75 1H3.25C2.65326 1 2.08097 1.23705 1.65901 1.65901C1.23705 2.08097 1 2.65326 1 3.25M19 3.25V10C19 10.5967 18.7629 11.169 18.341 11.591C17.919 12.0129 17.3467 12.25 16.75 12.25H3.25C2.65326 12.25 2.08097 12.0129 1.65901 11.591C1.23705 11.169 1 10.5967 1 10V3.25" stroke="#00265F" stroke-width="1.5" stroke-linecap="round" stroke-linejoin="round"/>
</svg>
