<svg width="33" height="54" viewBox="0 0 33 54" fill="none" xmlns="http://www.w3.org/2000/svg">
<path fill-rule="evenodd" clip-rule="evenodd" d="M0.476562 16.8726C0.477188 13.6796 1.34687 10.5522 2.98459 7.8538C4.6223 5.15538 6.96086 2.99661 9.72864 1.62823C12.4964 0.259855 15.5798 -0.261981 18.6208 0.123335C21.6617 0.508651 24.5354 1.7853 26.9081 3.80502C29.2807 5.82474 31.055 8.50464 32.0248 11.5335C32.9946 14.5623 33.1201 17.8157 32.3868 20.9159C31.6535 24.0162 30.0914 26.8359 27.882 29.0477C25.6726 31.2595 22.9066 32.7726 19.9051 33.4112V50.6248C19.9051 51.5199 19.564 52.3784 18.9567 53.0114C18.3494 53.6444 17.5258 54 16.667 54C15.8082 54 14.9846 53.6444 14.3773 53.0114C13.7701 52.3784 13.4289 51.5199 13.4289 50.6248V33.4112C9.77249 32.6319 6.48644 30.5604 4.12636 27.5469C1.76628 24.5334 0.477019 20.7628 0.476562 16.8726Z" fill="#0D87FF"/>
</svg>
