<svg width="20" height="20" viewBox="0 0 20 20" fill="none" xmlns="http://www.w3.org/2000/svg">
<path d="M10.7506 1.02955V1.59755C10.7506 1.93155 10.8986 2.24755 11.1556 2.46155L12.2236 3.35155C12.6656 3.72055 12.7586 4.36155 12.4396 4.84155L11.9296 5.60755C11.6519 6.02376 11.2434 6.33552 10.7686 6.49355L10.6256 6.54155C10.4643 6.5955 10.3175 6.68592 10.1968 6.80578C10.076 6.92564 9.98454 7.07172 9.92941 7.23268C9.87427 7.39364 9.85698 7.56514 9.87887 7.73386C9.90076 7.90258 9.96125 8.06399 10.0556 8.20555C10.4246 8.76055 10.2246 9.51255 9.62864 9.81055L7.00064 11.1245L7.42364 12.1835C7.50895 12.3986 7.51336 12.6374 7.43604 12.8555C7.35873 13.0735 7.20494 13.2562 7.0032 13.3695C6.80146 13.4828 6.56547 13.5191 6.339 13.4717C6.11252 13.4243 5.91094 13.2963 5.77164 13.1115L5.09264 12.2055C4.97756 12.0522 4.8252 11.9308 4.65002 11.8529C4.47484 11.775 4.28266 11.7431 4.0917 11.7603C3.90075 11.7776 3.71737 11.8433 3.55897 11.9513C3.40057 12.0594 3.2724 12.2061 3.18664 12.3775L2.50064 13.7495L1.88864 13.9025M10.7506 1.02955C9.1697 0.896883 7.58177 1.18548 6.14778 1.8642C4.71379 2.54291 3.48469 3.58863 2.58503 4.89538C1.68537 6.20213 1.14713 7.72348 1.02483 9.30526C0.902533 10.887 1.20054 12.473 1.88864 13.9025M10.7506 1.02955C12.3183 1.1603 13.8244 1.70067 15.1186 2.59491C16.4129 3.48915 17.4501 4.70701 18.127 6.12709C18.8038 7.54716 19.0966 9.11985 18.9762 10.6884C18.8558 12.2569 18.3263 13.7664 17.4406 15.0665L17.2636 14.5375C17.1142 14.0896 16.8276 13.7 16.4444 13.4239C16.0612 13.1479 15.6009 12.9994 15.1286 12.9995H14.5006L14.1766 12.6755C14.0139 12.5125 13.8147 12.3905 13.5955 12.3196C13.3764 12.2487 13.1435 12.231 12.9161 12.2678C12.6887 12.3046 12.4733 12.395 12.2877 12.5314C12.1021 12.6679 11.9516 12.8465 11.8486 13.0525L11.8126 13.1255C11.7144 13.3222 11.5764 13.4963 11.4074 13.6367C11.2383 13.7772 11.0419 13.881 10.8306 13.9415L9.84064 14.2235C9.29064 14.3805 8.94664 14.9255 9.04064 15.4905L9.11364 15.9285C9.19364 16.4025 9.60364 16.7495 10.0836 16.7495C10.9296 16.7495 11.6816 17.2915 11.9486 18.0945L12.1636 18.7375M1.88864 13.9025C2.78505 15.7663 4.29601 17.2645 6.16734 18.1451C8.03866 19.0257 10.1562 19.2349 12.1636 18.7375M12.1636 18.7375C14.3136 18.2042 16.1918 16.8977 17.4396 15.0675M13.7506 6.99955C13.7506 7.89555 13.3576 8.69955 12.7346 9.24955" stroke="#00265F" stroke-width="1.5" stroke-linecap="round" stroke-linejoin="round"/>
</svg>
