<svg  viewBox="0 0 28 28" xmlns="http://www.w3.org/2000/svg">
<path fill-rule="evenodd" clip-rule="evenodd" d="M13.9993 26.0003C20.6267 26.0003 25.9993 20.6277 25.9993 14.0003C25.9993 7.37299 20.6267 2.00033 13.9993 2.00033C7.37202 2.00033 1.99935 7.37299 1.99935 14.0003C1.99935 20.6277 7.37202 26.0003 13.9993 26.0003ZM13.9993 27.3337C21.3633 27.3337 27.3327 21.3643 27.3327 14.0003C27.3327 6.63633 21.3633 0.666992 13.9993 0.666992C6.63535 0.666992 0.666016 6.63633 0.666016 14.0003C0.666016 21.3643 6.63535 27.3337 13.9993 27.3337Z"/>
<path d="M6 21.7532C6 21.0645 6.51467 20.4825 7.2 20.4065C12.3433 19.8372 15.68 19.8885 20.812 20.4192C21.0683 20.4461 21.3112 20.5471 21.511 20.7097C21.7108 20.8724 21.859 21.0898 21.9373 21.3353C22.0157 21.5807 22.0208 21.8437 21.9521 22.0921C21.8835 22.3405 21.744 22.5635 21.5507 22.7338C15.494 28.0132 12.0327 27.9405 6.42667 22.7392C6.15333 22.4858 6 22.1252 6 21.7532Z"/>
<path fill-rule="evenodd" clip-rule="evenodd" d="M20.742 21.0819C15.6507 20.5552 12.362 20.5059 7.27137 21.0692C7.1038 21.0887 6.94932 21.1694 6.8375 21.2957C6.72569 21.422 6.6644 21.5852 6.66537 21.7539C6.66537 21.9445 6.7447 22.1252 6.8787 22.2505C9.65737 24.8279 11.7627 25.9925 13.8207 25.9999C15.886 26.0072 18.1047 24.8519 21.1114 22.2319C21.2069 22.1468 21.2756 22.0359 21.3093 21.9125C21.3429 21.7892 21.34 21.6587 21.3009 21.5369C21.2618 21.4152 21.1881 21.3074 21.0889 21.2268C20.9897 21.1461 20.8692 21.0953 20.742 21.0819ZM7.12537 19.7439C12.3227 19.1685 15.708 19.2205 20.88 19.7559C21.2656 19.7961 21.631 19.9479 21.9316 20.1926C22.2322 20.4373 22.4549 20.7644 22.5725 21.1338C22.6901 21.5031 22.6974 21.8988 22.5936 22.2722C22.4898 22.6457 22.2794 22.9808 21.988 23.2365C18.938 25.8952 16.398 27.3432 13.8167 27.3332C11.228 27.3239 8.80004 25.8512 5.9727 23.2279C5.77027 23.0393 5.6089 22.811 5.49866 22.5573C5.38843 22.3036 5.33171 22.0298 5.33204 21.7532C5.33106 21.2561 5.5135 20.7762 5.84441 20.4053C6.17532 20.0344 6.63143 19.7993 7.12537 19.7439Z"/>
<path d="M19.3327 11.3333C19.3327 12.7478 18.7708 14.1044 17.7706 15.1046C16.7704 16.1048 15.4138 16.6667 13.9993 16.6667C12.5849 16.6667 11.2283 16.1048 10.2281 15.1046C9.22792 14.1044 8.66602 12.7478 8.66602 11.3333C8.66602 9.91885 9.22792 8.56229 10.2281 7.5621C11.2283 6.5619 12.5849 6 13.9993 6C15.4138 6 16.7704 6.5619 17.7706 7.5621C18.7708 8.56229 19.3327 9.91885 19.3327 11.3333Z"/>
<path fill-rule="evenodd" clip-rule="evenodd" d="M13.9993 15.3333C15.0602 15.3333 16.0776 14.9119 16.8278 14.1618C17.5779 13.4116 17.9993 12.3942 17.9993 11.3333C17.9993 10.2725 17.5779 9.25505 16.8278 8.50491C16.0776 7.75476 15.0602 7.33333 13.9993 7.33333C12.9385 7.33333 11.9211 7.75476 11.1709 8.50491C10.4208 9.25505 9.99935 10.2725 9.99935 11.3333C9.99935 12.3942 10.4208 13.4116 11.1709 14.1618C11.9211 14.9119 12.9385 15.3333 13.9993 15.3333ZM13.9993 16.6667C15.4138 16.6667 16.7704 16.1048 17.7706 15.1046C18.7708 14.1044 19.3327 12.7478 19.3327 11.3333C19.3327 9.91885 18.7708 8.56229 17.7706 7.5621C16.7704 6.5619 15.4138 6 13.9993 6C12.5849 6 11.2283 6.5619 10.2281 7.5621C9.22792 8.56229 8.66602 9.91885 8.66602 11.3333C8.66602 12.7478 9.22792 14.1044 10.2281 15.1046C11.2283 16.1048 12.5849 16.6667 13.9993 16.6667Z"/>
</svg>
